<svg width="78" height="78" viewBox="0 0 78 78" fill="none" xmlns="http://www.w3.org/2000/svg">
<path d="M70.236 15.2201C68.06 17.3961 64.5307 17.3961 62.3547 15.2201C60.1787 13.0441 60.1787 9.51472 62.3547 7.33872C64.5307 5.16272 68.06 5.16272 70.236 7.33872C72.412 9.51472 72.412 13.0441 70.236 15.2201Z" fill="#E9CBAB"/>
<path d="M77.566 39.2104H77.542C77.586 37.4211 77.5327 35.6331 77.3313 33.8584H71.9713C72.2273 35.8024 72.3033 37.7704 72.2167 39.7357C71.982 47.9851 68.7393 56.1651 62.458 62.4477C49.406 75.4984 28.17 75.4984 15.1193 62.4477C2.06733 49.3957 2.06733 28.1611 15.1193 15.1091C21.458 8.7704 29.7287 5.52374 38.0527 5.34241C39.942 5.27174 41.8313 5.3424 43.7007 5.58774V0.22774C41.9287 0.0277402 40.1433 -0.0269328 38.3567 0.0170672V-0.000266797C38.1807 0.00239987 38.006 0.0144049 37.8313 0.0184049C37.7993 0.0197382 37.766 0.0170715 37.734 0.0184049V0.0224027C28.1513 0.279736 18.646 4.03974 11.3487 11.3384C-3.782 26.4691 -3.78334 51.0877 11.3473 66.2184C26.478 81.3491 51.098 81.3491 66.2287 66.2184C73.6847 58.7624 77.458 49.0037 77.566 39.2104Z" fill="#E9CBAB"/>
<path d="M59.4798 39.2329H59.4865L59.5132 33.8222H48.7878V39.2222H54.1385C54.0345 43.0169 52.5718 46.7795 49.6825 49.6702C43.6772 55.6755 33.9038 55.6755 27.8985 49.6689C21.8918 43.6635 21.8932 33.8915 27.8985 27.8862C30.7412 25.0435 34.4265 23.5689 38.1585 23.4169C40.0212 23.3515 41.8852 23.4209 43.7292 23.6622V18.3035C41.9478 18.1009 40.1532 18.0462 38.3572 18.0915V18.0715C38.2492 18.0742 38.1425 18.0889 38.0345 18.0929C37.9438 18.0955 37.8532 18.0902 37.7625 18.0942V18.1115C32.7998 18.3542 27.9078 20.3329 24.1265 24.1155C16.0412 32.1995 16.0412 45.3555 24.1265 53.4409C32.2118 61.5262 45.3678 61.5262 53.4532 53.4409C57.3798 49.5142 59.3705 44.3902 59.4798 39.2329Z" fill="#E9CBAB"/>
</svg>
