<svg width="263" height="47" viewBox="0 0 263 47" fill="none" xmlns="http://www.w3.org/2000/svg">
<path d="M33.2611 17.9906V19.0946C33.2611 29.8266 26.5864 36.0186 17.2477 36.0186C7.90905 36.0186 0.0117188 28.5066 0.0117188 18.6386C0.0117188 8.62789 7.73972 1.25722 16.9584 1.25722C25.4344 1.25722 31.0037 6.08255 32.8037 12.7572H26.7064C25.1464 8.72389 21.6891 6.25055 17.0317 6.25055C11.1971 6.25055 5.74772 11.0052 5.74772 18.6386C5.74772 26.1292 11.2451 31.0506 17.2957 31.0506C22.3851 31.0506 26.5624 27.5932 27.1157 22.6239H16.3837V17.9906H33.2611Z" fill="#E9CBAB"/>
<path d="M43.9817 21.9278V35.4438H38.4844V10.5718H43.9817V14.0052C45.5657 11.6998 48.159 9.99585 51.3284 9.99585C52.1204 9.99585 52.8884 10.1398 53.5124 10.3558L53.1044 15.3012C52.3124 15.0372 51.399 14.8692 50.511 14.8692C47.031 14.8692 43.9817 17.8225 43.9817 21.9278Z" fill="#E9CBAB"/>
<path d="M61.0707 20.511H75.8347C75.1387 17.0297 72.3534 14.5084 68.656 14.5084C65.008 14.5084 61.9587 17.0297 61.0707 20.511ZM69.0894 31.5057C72.5694 31.5057 75.0427 30.259 77.468 27.8577L80.396 30.7137C77.6827 33.835 74.2734 36.019 69.16 36.019C60.8774 36.019 55.332 30.259 55.332 23.007C55.332 15.7817 61.0454 9.99504 68.68 9.99504C76.1947 9.99504 81.524 15.6377 81.524 22.5284C81.524 23.223 81.4294 24.0884 81.284 24.6884H60.9027C61.4307 28.6257 64.696 31.5057 69.0894 31.5057Z" fill="#E9CBAB"/>
<path d="M90.5902 20.511H105.356C104.658 17.0297 101.873 14.5084 98.1769 14.5084C94.5262 14.5084 91.4782 17.0297 90.5902 20.511ZM98.6089 31.5057C102.09 31.5057 104.562 30.259 106.988 27.8577L109.917 30.7137C107.204 33.835 103.794 36.019 98.6809 36.019C90.3969 36.019 84.8516 30.259 84.8516 23.007C84.8516 15.7817 90.5649 9.99504 98.2009 9.99504C105.714 9.99504 111.045 15.6377 111.045 22.5284C111.045 23.223 110.949 24.0884 110.805 24.6884H90.4222C90.9502 28.6257 94.2156 31.5057 98.6089 31.5057Z" fill="#E9CBAB"/>
<path d="M139.049 20.1025V35.4438H133.576V20.5825C133.576 17.2225 131.296 14.8692 127.981 14.8692C124.573 14.8692 121.548 17.7025 121.548 21.7598V35.4438H116.051V10.5732H121.548V13.8852C123.229 11.5798 125.941 9.99585 129.111 9.99585C135.088 9.99585 139.049 13.9812 139.049 20.1025Z" fill="#E9CBAB"/>
<path d="M158.366 14.8692C153.925 14.8692 150.684 18.4945 150.684 23.0079C150.684 27.5452 153.997 31.1465 158.366 31.1465C162.712 31.1465 166.049 27.5452 166.049 23.0079C166.049 18.4945 162.784 14.8692 158.366 14.8692ZM159.448 36.0185C155.797 36.0185 152.749 34.5079 150.684 32.0825V46.5825H145.234V10.5719H150.684V13.9559C152.749 11.5079 155.797 9.99585 159.448 9.99585C166.457 9.99585 171.57 15.7825 171.57 23.0079C171.57 30.2585 166.457 36.0185 159.448 36.0185Z" fill="#E9CBAB"/>
<path d="M188.536 31.1466C193.12 31.1466 196.625 27.5452 196.625 23.0079C196.625 18.4946 193.12 14.8692 188.536 14.8692C183.95 14.8692 180.445 18.4946 180.445 23.0079C180.445 27.5452 183.95 31.1466 188.536 31.1466ZM188.536 9.99589C196.361 9.99589 202.148 15.7826 202.148 23.0079C202.148 30.2332 196.361 36.0186 188.536 36.0186C180.709 36.0186 174.898 30.2332 174.898 23.0079C174.898 15.7826 180.709 9.99589 188.536 9.99589Z" fill="#E9CBAB"/>
<path d="M207.514 10.5727H212.987V35.4434H207.514V10.5727ZM210.251 0.440688C212.171 0.440688 213.659 1.90602 213.659 3.80202C213.659 5.67535 212.171 7.13936 210.251 7.13936C208.33 7.13936 206.867 5.67535 206.867 3.80202C206.867 1.90602 208.33 0.440688 210.251 0.440688Z" fill="#E9CBAB"/>
<path d="M243.042 20.1025V35.4438H237.568V20.5825C237.568 17.2225 235.288 14.8692 231.974 14.8692C228.566 14.8692 225.54 17.7025 225.54 21.7598V35.4438H220.043V10.5732H225.54V13.8852C227.222 11.5798 229.934 9.99585 233.103 9.99585C239.08 9.99585 243.042 13.9812 243.042 20.1025Z" fill="#E9CBAB"/>
<path d="M256.118 27.1609C256.118 29.9209 257.318 31.2422 260.439 31.2422C261.159 31.2422 262.145 31.1942 262.745 31.1222V35.1555C261.759 35.7075 260.223 36.0195 258.758 36.0195C253.526 36.0195 250.645 33.2102 250.645 27.4009V15.3729H245.867V10.5729H250.645V4.6182L256.118 3.3702V10.5729H262.457V15.3729H256.118V27.1609Z" fill="#E9CBAB"/>
</svg>
