<svg width="0" height="0" class="hidden">
    <symbol enable-background="new 0 0 32 32" id="arrow_right" version="1.1" xml:space="preserve" xmlns="http://www.w3.org/2000/svg" xmlns:xlink="http://www.w3.org/1999/xlink" viewBox="0 0 32 32">
        <path d="M16,0C7.163,0,0,7.163,0,16c0,8.836,7.163,16,16,16c8.836,0,16-7.164,16-16C32,7.163,24.836,0,16,0z M16,30   C8.268,30,2,23.732,2,16C2,8.268,8.268,2,16,2s14,6.268,14,14C30,23.732,23.732,30,16,30z"></path>
        <path d="M25.707,15.286l-6.899-6.999c-0.391-0.395-1.024-0.394-1.414,0c-0.391,0.395-0.391,1.034,0,1.429l5.2,5.275   H7c-0.552,0-1,0.452-1,1.01c0,0.558,0.448,1.01,1,1.01h15.593l-5.2,5.275c-0.39,0.394-0.39,1.034,0,1.428   c0.391,0.394,1.024,0.394,1.414,0l6.899-6.999C25.893,16.527,26,16.264,26,16C26,15.737,25.892,15.474,25.707,15.286z"></path>
    </symbol>
    <symbol version="1.1" xml:space="preserve" xmlns="http://www.w3.org/2000/svg" xmlnsSerif="http://www.serif.com/" xmlns:xlink="http://www.w3.org/1999/xlink" viewBox="0 0 512 512" id="facebook">
        <path d="M512,257.555c0,-141.385 -114.615,-256 -256,-256c-141.385,0 -256,114.615 -256,256c0,127.777 93.616,233.685 216,252.89l0,-178.89l-65,0l0,-74l65,0l0,-56.4c0,-64.16 38.219,-99.6 96.695,-99.6c28.009,0 57.305,5 57.305,5l0,63l-32.281,0c-31.801,0 -41.719,19.733 -41.719,39.978l0,48.022l71,0l-11.35,74l-59.65,0l0,178.89c122.385,-19.205 216,-125.113 216,-252.89Z"></path>
      </symbol>
    <symbol version="1.1" xml:space="preserve" xmlns="http://www.w3.org/2000/svg" xmlnsSerif="http://www.serif.com/" xmlns:xlink="http://www.w3.org/1999/xlink" viewBox="0 0 512 512" id="instagram">
        <path d="M256,0c141.29,0 256,114.71 256,256c0,141.29 -114.71,256 -256,256c-141.29,0 -256,-114.71 -256,-256c0,-141.29 114.71,-256 256,-256Zm0,96c-43.453,0 -48.902,0.184 -65.968,0.963c-17.03,0.777 -28.661,3.482 -38.839,7.437c-10.521,4.089 -19.444,9.56 -28.339,18.455c-8.895,8.895 -14.366,17.818 -18.455,28.339c-3.955,10.177 -6.659,21.808 -7.437,38.838c-0.778,17.066 -0.962,22.515 -0.962,65.968c0,43.453 0.184,48.902 0.962,65.968c0.778,17.03 3.482,28.661 7.437,38.838c4.089,10.521 9.56,19.444 18.455,28.34c8.895,8.895 17.818,14.366 28.339,18.455c10.178,3.954 21.809,6.659 38.839,7.436c17.066,0.779 22.515,0.963 65.968,0.963c43.453,0 48.902,-0.184 65.968,-0.963c17.03,-0.777 28.661,-3.482 38.838,-7.436c10.521,-4.089 19.444,-9.56 28.34,-18.455c8.895,-8.896 14.366,-17.819 18.455,-28.34c3.954,-10.177 6.659,-21.808 7.436,-38.838c0.779,-17.066 0.963,-22.515 0.963,-65.968c0,-43.453 -0.184,-48.902 -0.963,-65.968c-0.777,-17.03 -3.482,-28.661 -7.436,-38.838c-4.089,-10.521 -9.56,-19.444 -18.455,-28.339c-8.896,-8.895 -17.819,-14.366 -28.34,-18.455c-10.177,-3.955 -21.808,-6.66 -38.838,-7.437c-17.066,-0.779 -22.515,-0.963 -65.968,-0.963Zm0,28.829c42.722,0 47.782,0.163 64.654,0.933c15.6,0.712 24.071,3.318 29.709,5.509c7.469,2.902 12.799,6.37 18.397,11.969c5.6,5.598 9.067,10.929 11.969,18.397c2.191,5.638 4.798,14.109 5.509,29.709c0.77,16.872 0.933,21.932 0.933,64.654c0,42.722 -0.163,47.782 -0.933,64.654c-0.711,15.6 -3.318,24.071 -5.509,29.709c-2.902,7.469 -6.369,12.799 -11.969,18.397c-5.598,5.6 -10.928,9.067 -18.397,11.969c-5.638,2.191 -14.109,4.798 -29.709,5.509c-16.869,0.77 -21.929,0.933 -64.654,0.933c-42.725,0 -47.784,-0.163 -64.654,-0.933c-15.6,-0.711 -24.071,-3.318 -29.709,-5.509c-7.469,-2.902 -12.799,-6.369 -18.398,-11.969c-5.599,-5.598 -9.066,-10.928 -11.968,-18.397c-2.191,-5.638 -4.798,-14.109 -5.51,-29.709c-0.77,-16.872 -0.932,-21.932 -0.932,-64.654c0,-42.722 0.162,-47.782 0.932,-64.654c0.712,-15.6 3.319,-24.071 5.51,-29.709c2.902,-7.468 6.369,-12.799 11.968,-18.397c5.599,-5.599 10.929,-9.067 18.398,-11.969c5.638,-2.191 14.109,-4.797 29.709,-5.509c16.872,-0.77 21.932,-0.933 64.654,-0.933Zm0,49.009c-45.377,0 -82.162,36.785 -82.162,82.162c0,45.377 36.785,82.162 82.162,82.162c45.377,0 82.162,-36.785 82.162,-82.162c0,-45.377 -36.785,-82.162 -82.162,-82.162Zm0,135.495c-29.455,0 -53.333,-23.878 -53.333,-53.333c0,-29.455 23.878,-53.333 53.333,-53.333c29.455,0 53.333,23.878 53.333,53.333c0,29.455 -23.878,53.333 -53.333,53.333Zm104.609,-138.741c0,10.604 -8.597,19.199 -19.201,19.199c-10.603,0 -19.199,-8.595 -19.199,-19.199c0,-10.604 8.596,-19.2 19.199,-19.2c10.604,0 19.201,8.596 19.201,19.2Z"></path>
    </symbol>
    <symbol id="sendero_logo" xmlns="http://www.w3.org/2000/svg" viewBox="0 0 404 98">
        <path d="M57.9077 59.9834H96.7567C95.9017 45.5674 86.9827 37.8714 77.9427 37.8714C67.5587 37.8714 59.4957 46.4234 57.9077 59.9834ZM100.666 87.4704L88.6937 96.2664C86.2497 97.2434 82.9517 97.6104 80.0197 97.6104C64.1377 97.6104 51.5547 85.6384 51.5547 67.4354C51.5547 49.7214 63.6497 35.4284 79.0427 35.4284C92.9697 35.4284 103.476 46.5454 103.476 62.6714H57.6637V64.9924C57.6637 82.3394 69.1467 91.9904 81.8517 91.9904C88.3267 91.9904 93.8247 89.7914 99.5667 86.0044L100.666 87.4704Z"></path>
        <path d="M120.09 36.6497H123.266L125.832 45.4457L136.094 37.5047C138.537 36.1607 142.324 35.4277 145.134 35.4277C158.328 35.4277 167.002 44.2237 167.002 57.5397V96.5107H160.893V60.7167C160.893 45.8117 152.22 40.9257 143.668 40.9257C138.537 40.9257 133.65 42.3917 126.198 47.7667V72.1387V96.5107H120.09V36.6497Z"></path>
        <path d="M210.006 92.1128C215.015 92.1128 219.413 90.2808 225.521 85.8828V45.9348C221.734 41.5358 215.381 38.2378 208.907 38.2378C196.812 38.2378 187.772 49.5988 187.772 65.4808C187.772 81.4848 197.545 92.1128 210.006 92.1128ZM231.629 -0.000160217V96.5108H228.698L225.765 88.2038L214.771 96.5108C212.816 97.2438 209.884 97.6108 207.929 97.6108C191.803 97.6108 182.152 83.4388 182.152 69.1458C182.152 48.9888 195.102 35.5498 211.472 35.5498C217.214 35.5498 221.734 36.7718 225.521 38.7268V-0.000160217H231.629Z"></path>
        <path d="M254.595 59.9834H293.444C292.588 45.5674 283.67 37.8714 274.63 37.8714C264.246 37.8714 256.183 46.4234 254.595 59.9834ZM297.353 87.4704L285.381 96.2664C282.938 97.2434 279.639 97.6104 276.707 97.6104C260.826 97.6104 248.242 85.6384 248.242 67.4354C248.242 49.7214 260.337 35.4284 275.73 35.4284C289.657 35.4284 300.163 46.5454 300.163 62.6714H254.351V64.9924C254.351 82.3394 265.834 91.9904 278.539 91.9904C285.014 91.9904 290.512 89.7914 296.253 86.0044L297.353 87.4704Z"></path>
        <path d="M316.777 36.6497H319.953L322.763 47.6447L337.667 37.2607C339.256 36.6497 342.187 36.0387 344.509 35.7947V42.1467C337.056 43.3687 328.749 46.1787 322.885 49.8437V96.5107H316.777V36.6497Z"></path>
        <path d="M397.175 69.5124C397.175 51.3094 386.245 37.9934 374.517 37.9934C364.01 37.9934 355.035 47.0344 355.035 63.6484C355.035 81.8514 366.087 95.1674 377.693 95.1674C388.199 95.1674 397.175 86.1274 397.175 69.5124ZM403.283 66.0924C403.283 84.5384 391.498 97.7324 376.105 97.7324C361.078 97.7324 348.926 84.4164 348.926 67.0694C348.926 48.6224 360.712 35.4284 376.105 35.4284C391.131 35.4284 403.283 48.7444 403.283 66.0924Z"></path>
        <path d="M0 91.2579L4.032 86.3709L21.746 94.9229C29.076 94.9229 34.573 90.6469 34.573 83.8059C34.573 77.2089 30.786 72.9329 19.302 68.1689C7.941 63.5259 2.443 59.2499 2.443 51.3099C2.443 42.2689 10.018 35.4279 21.501 35.4279C26.877 35.4279 32.741 36.7719 38.238 40.0709L34.451 45.2009L19.302 37.9939C12.339 37.9939 7.208 42.0249 7.208 48.4999C7.208 55.5859 13.072 58.2729 22.356 62.5489C34.207 67.5579 39.582 73.1769 39.582 80.3849C39.582 90.5249 31.152 97.7329 18.447 97.7329C13.677 97.7329 4.746 94.9649 0 91.2579Z"></path>
    </symbol>
    <symbol xmlns="http://www.w3.org/2000/svg" viewBox="0 0 407 69" id="outpost-title">
      <path d="M0.332031 63.1086C1.3347 62.1873 2.36536 61.294 3.33203 60.3366C3.97736 59.6966 4.53336 58.9646 5.12536 58.2726C5.22003 58.162 5.27336 57.994 5.38936 57.93C6.2067 57.4726 6.74536 56.7366 7.37336 56.078C8.2627 55.146 9.24936 54.3086 10.208 53.4446C10.808 52.9033 10.86 51.958 10.388 51.2513C9.66936 50.1766 9.00536 49.0646 8.3187 47.9686C8.12536 47.6593 7.9507 47.338 7.73603 47.0446C7.3947 46.5806 7.21736 46.086 7.10403 45.5073C6.95736 44.7513 6.62937 44.0206 6.3107 43.3086C5.5947 41.7113 5.2147 40.026 5.04403 38.3046C4.8627 36.4606 4.7067 34.602 4.72536 32.7513C4.74136 31.0633 4.98936 29.3913 5.37736 27.7153C5.88136 25.5446 6.7027 23.4926 7.34537 21.3766C7.51603 20.814 7.88136 20.3086 8.16803 19.7833C8.82536 18.5833 9.4067 17.3286 10.1734 16.202C11.0334 14.9366 12.0414 13.7686 13.0334 12.5993C13.344 12.234 13.824 12.018 14.2 11.7046C14.5187 11.438 14.7774 11.098 15.1054 10.8433C15.7814 10.3193 16.4707 9.80597 17.1827 9.32997C18.7747 8.26864 20.3534 7.18197 21.9987 6.20997C22.7654 5.75531 23.6614 5.49531 24.5227 5.22864C25.8414 4.82064 27.1694 4.41264 28.5187 4.13264C29.784 3.86864 31.084 3.77398 32.368 3.59798C32.8 3.53798 33.228 3.45397 33.6587 3.38597C33.9467 3.34064 34.2387 3.26064 34.5254 3.27398C35.8347 3.33131 37.1614 3.30864 38.448 3.51664C40.056 3.77664 41.6347 4.22731 43.2214 4.60997C44.0854 4.81797 44.9614 4.99798 45.7947 5.29264C46.6174 5.58331 47.4027 5.98731 48.1894 6.37264C48.6507 6.59798 48.7227 7.14064 48.3574 7.50597C48.0987 7.76464 47.8 7.98331 47.532 8.23264C47.2534 8.49131 46.9947 8.76998 46.72 9.03264C45.8374 9.87531 44.9614 10.7233 44.064 11.5486C43.6734 11.9086 43.1787 11.834 42.7054 11.754C42.1694 11.6646 41.632 11.5713 41.1 11.4593C40.872 11.4113 40.6587 11.298 40.432 11.238C39.84 11.0833 39.248 10.914 38.6467 10.8046C37.8574 10.662 37.0614 10.5166 36.2627 10.4713C35.3134 10.418 34.3587 10.4486 33.408 10.4846C32.788 10.5086 32.172 10.6593 31.5534 10.662C30.2627 10.67 29.1854 11.346 28.012 11.718C27.0254 12.03 26.0267 12.3153 25.068 12.6993C24.4667 12.9393 23.904 13.3006 23.3707 13.6753C22.4 14.3566 21.4587 15.0833 20.5147 15.802C19.7294 16.398 18.8814 16.938 18.2014 17.6393C17.5747 18.286 17.14 19.1153 16.612 19.858C16.464 20.066 16.3227 20.314 16.1147 20.438C15.528 20.7886 15.364 21.366 15.1094 21.9406C14.54 23.2246 13.852 24.4553 13.252 25.726C13.0707 26.11 13.0267 26.5566 12.9067 26.9713C12.7187 27.614 12.46 28.242 12.336 28.8966C12.1467 29.8966 12.0894 30.922 11.896 31.9206C11.544 33.7366 12.1907 35.4913 12.1734 37.2913C12.164 38.182 12.5987 39.0793 12.852 39.9673C13.1654 41.0673 13.4747 42.1686 13.832 43.254C14.1907 44.3486 14.8827 45.2553 15.6547 46.086C16.1627 46.6326 17.108 46.5646 17.6787 45.97C18.456 45.1593 19.1707 44.2873 19.9654 43.4953C20.5214 42.942 21.1787 42.4926 21.768 41.9713C22.04 41.7313 22.2414 41.4126 22.5027 41.158C23.1827 40.494 23.8854 39.8526 24.5654 39.1886C24.8787 38.8806 25.1587 38.538 25.4587 38.2153C26.5027 37.0966 27.4867 35.9086 28.6174 34.8833C29.4347 34.1433 30.172 33.3606 30.8667 32.5126C31.228 32.0713 31.788 31.798 32.2187 31.406C32.6507 31.0113 33.0214 30.55 33.4414 30.1393C34.868 28.7406 36.3254 27.3726 37.7267 25.9486C38.4854 25.1793 39.132 24.3006 39.8734 23.5126C40.272 23.0886 40.7987 22.786 41.2054 22.3686C42.0974 21.45 42.9494 20.494 43.8174 19.554C43.8814 19.486 43.948 19.422 44.0134 19.3566C45.4307 17.9406 46.8254 16.502 48.2747 15.1206C49.0547 14.378 49.94 13.746 50.7547 13.0366C51.0094 12.814 51.1747 12.49 51.404 12.234C51.72 11.8846 52.0507 11.5473 52.3907 11.222C52.9187 10.7193 53.4854 10.2553 53.9894 9.72997C54.876 8.80731 55.6934 7.81664 56.604 6.91797C57.3587 6.17264 58.264 5.57664 58.9974 4.81264C60.18 3.58197 61.2707 2.26198 62.416 0.993977C62.66 0.724643 62.9454 0.465975 63.2614 0.293975C64.0614 -0.143359 64.4507 -0.167358 65.38 0.737975C66.3627 1.69664 67.3254 2.67664 68.2974 3.64731C68.7614 4.11131 68.7854 4.89797 68.3387 5.36864C67.5174 6.23264 66.7467 7.15531 65.8494 7.93131C64.9987 8.66598 64.3294 9.54731 63.56 10.3433C62.4747 11.4646 61.3134 12.5153 60.1987 13.6113C59.156 14.6353 59.1294 15.73 60.164 16.762C60.9374 17.5313 61.42 18.446 61.8187 19.4406C62.2454 20.506 62.7067 21.5593 63.2174 22.586C64.0107 24.182 64.5347 25.8553 64.8427 27.6046C64.9854 28.41 65.1827 29.206 65.3027 30.014C65.36 30.3993 65.2907 30.802 65.2867 31.1966C65.284 31.534 65.2 31.9086 65.316 32.202C65.7307 33.242 65.3534 34.278 65.3787 35.314C65.3854 35.602 65.292 35.894 65.2934 36.1833C65.2974 36.8833 65.2827 37.5633 64.9774 38.23C64.8494 38.5086 64.9987 38.9006 64.944 39.2286C64.812 40.0153 64.7067 40.8193 64.4627 41.574C63.9654 43.11 63.3787 44.618 62.836 46.1406C62.3587 47.4793 61.584 48.642 60.7534 49.7833C59.9494 50.886 59.2307 52.05 58.4414 53.1633C58.2347 53.454 57.8827 53.638 57.628 53.8993C56.996 54.5473 56.3547 55.1886 55.7667 55.874C54.8374 56.9553 53.608 57.6233 52.444 58.3833C52.368 58.434 52.256 58.4593 52.2147 58.5273C51.5907 59.574 50.4187 59.7726 49.468 60.3153C48.316 60.9726 47.2027 61.6713 45.8854 62.0073C44.444 62.3753 43.0574 62.9553 41.6147 63.3166C40.364 63.63 39.076 63.8713 37.792 63.954C36.3907 64.0446 34.9747 63.9153 33.564 63.882C33.416 63.8793 33.2654 63.8553 33.12 63.874C31.6894 64.054 30.352 63.446 28.9614 63.3833C27.8614 63.334 26.9507 62.7166 25.916 62.586C24.7334 62.438 23.744 61.8593 22.6974 61.402C22.1054 61.142 22.048 60.4646 22.4 59.9366C22.8934 59.198 23.3987 58.498 24.192 58.0526C24.2827 58.002 24.344 57.894 24.412 57.8073C24.7734 57.3486 25.1174 56.878 25.4934 56.4326C26.152 55.654 26.964 55.5246 27.928 55.8033C28.6414 56.01 29.3934 56.082 30.1254 56.2233C30.9654 56.386 31.796 56.6033 32.6414 56.718C33.604 56.8473 34.5534 57.1486 35.56 56.8166C36.0854 56.6446 36.692 56.7313 37.2587 56.6686C38.4934 56.5326 39.7307 56.4073 40.956 56.2126C41.3694 56.1473 41.7454 55.866 42.1494 55.714C42.5334 55.5686 42.936 55.4686 43.3254 55.3353C43.728 55.1966 44.1374 55.0646 44.5227 54.8833C44.9134 54.6993 45.2574 54.4006 45.66 54.2526C46.7547 53.8526 47.7987 53.41 48.4987 52.398C48.6534 52.1753 48.9867 52.0846 49.2134 51.9006C49.7027 51.5033 50.176 51.086 50.656 50.6753C50.92 50.4473 51.1987 50.234 51.44 49.9846C51.9134 49.494 52.3614 48.9793 52.8267 48.482C53.0107 48.2846 53.248 48.1313 53.4 47.9153C53.828 47.306 54.248 46.6873 54.628 46.0473C55.496 44.586 56.1494 43.026 56.752 41.4406C56.976 40.85 57.3827 40.31 57.512 39.7046C57.8027 38.3566 57.956 36.9793 58.196 35.6193C58.336 34.8286 58.3347 34.0686 58.1 33.2873C58.0054 32.9766 58.1507 32.5993 58.1507 32.2526C58.1507 31.9273 58.132 31.598 58.072 31.2793C57.7854 29.7806 57.6147 28.242 57.1467 26.8006C56.7054 25.438 56.4107 23.9806 55.468 22.8073C55.236 22.518 55.136 22.122 54.9787 21.7726C54.4974 20.6926 53.244 20.3633 52.332 21.2646C50.9867 22.594 49.7294 24.0113 48.404 25.3606C47.8667 25.91 47.2494 26.3806 46.6667 26.886C46.432 27.09 46.144 27.2553 45.9667 27.5006C44.732 29.2006 43.0347 30.4566 41.6574 32.0153C40.7414 33.0513 39.4827 33.742 38.7494 34.9606C38.6254 35.1686 38.3667 35.29 38.1907 35.4726C37.4587 36.23 36.764 37.026 36.0014 37.75C35.0294 38.674 33.9107 39.4593 33.0307 40.458C32.2254 41.3726 31.372 42.2166 30.4867 43.0433C29.3854 44.0726 28.312 45.13 27.248 46.1966C26.572 46.8753 25.9347 47.5913 25.2814 48.294C25.1574 48.4273 25.052 48.5806 24.924 48.71C23.7574 49.8793 22.58 51.0393 21.4214 52.2153C20.6947 52.9513 19.992 53.7126 19.2787 54.4606C18.468 55.3086 17.664 56.1633 16.84 56.998C16.5307 57.31 16.172 57.5726 15.8347 57.8553C15.808 57.878 15.7574 57.8753 15.736 57.8993C14.9534 58.818 14.06 59.6113 13.1507 60.4046C12.328 61.122 11.7294 62.0873 10.9494 62.8593C10.2507 63.5526 9.43736 64.13 8.67736 64.7633C8.5227 64.8913 8.31603 65.0113 8.24803 65.1806C7.7587 66.414 6.60403 67.0593 5.79337 68.0046H4.78936C4.64803 67.91 4.4907 67.8313 4.36536 67.718C3.3667 66.8033 2.37336 65.882 1.37736 64.962C1.02936 64.6406 0.680031 64.3193 0.332031 63.9993V63.1086Z"></path>
      <path d="M407 10.9259C406.577 11.5379 405.999 11.7806 405.259 11.6913C404.532 11.6033 403.803 11.5019 403.073 11.4846C402.432 11.4686 401.789 11.5553 401.148 11.6046C400.929 11.6219 400.713 11.6793 400.496 11.6846C398.832 11.7273 397.167 11.7659 395.503 11.7979C394.872 11.8099 394.297 12.4286 394.463 13.2393C394.659 14.1966 394.588 15.2153 394.571 16.2059C394.555 17.1966 394.275 18.1913 394.671 19.1673C394.684 19.2019 394.711 19.2353 394.711 19.2699C394.712 20.4979 394.717 21.7259 394.707 22.9539C394.705 23.2059 394.619 23.4593 394.617 23.7126C394.607 24.9033 394.625 26.0953 394.608 27.2859C394.597 27.9473 394.515 28.6073 394.505 29.2686C394.489 30.5526 394.479 31.8379 394.508 33.1206C394.529 34.0566 394.424 34.9819 394.676 35.9353C394.864 36.6486 394.664 37.4686 394.608 38.2393C394.564 38.8393 394.465 39.4353 394.411 40.0353C394.395 40.2113 394.441 40.3953 394.468 40.5726C394.652 41.7646 394.868 42.9433 394.544 44.1606C394.428 44.5966 394.596 45.1033 394.608 45.5779C394.623 46.2499 394.625 46.9219 394.609 47.5926C394.584 48.6659 394.503 49.7393 394.508 50.8126C394.521 53.0673 394.6 55.3233 394.6 57.5779C394.601 58.4726 394.444 59.3673 394.404 60.2633C394.383 60.7539 394.441 61.2513 394.488 61.7433C394.567 62.5726 394.375 63.4833 393.119 63.4366C391.82 63.3886 390.519 63.4206 389.219 63.4286C388.915 63.4299 388.592 63.5446 388.307 63.4806C387.368 63.2673 387.044 62.5486 387.309 61.5979C387.432 61.1633 387.416 60.6819 387.408 60.2219C387.385 58.8353 387.331 57.4499 387.297 56.0633C387.284 55.5206 387.275 54.9766 387.297 54.4353C387.333 53.5913 387.408 52.7486 387.443 51.9046C387.459 51.5099 387.412 51.1139 387.408 50.7179C387.401 50.1393 387.399 49.5619 387.415 48.9833C387.424 48.6393 387.492 48.2953 387.497 47.9499C387.508 47.2766 387.499 46.6033 387.483 45.9299C387.477 45.6779 387.413 45.4286 387.407 45.1766C387.395 44.6539 387.429 44.1286 387.396 43.6086C387.347 42.8433 387.185 42.0793 387.196 41.3153C387.211 40.0859 387.329 38.8579 387.399 37.6299C387.408 37.4646 387.416 37.2899 387.373 37.1339C387.2 36.4899 387.201 35.8859 387.343 35.2059C387.513 34.3926 387.375 33.5139 387.371 32.6633C387.368 32.1539 387.365 31.6459 387.371 31.1366C387.376 30.6006 387.457 30.0566 387.388 29.5299C387.192 28.0166 387.304 26.5259 387.448 25.0126C387.559 23.8393 387.332 22.6366 387.307 21.4459C387.289 20.5819 387.359 19.7166 387.388 18.8513C387.395 18.6846 387.401 18.5179 387.401 18.3513C387.403 16.6273 387.407 14.9033 387.399 13.1793C387.397 12.9459 387.351 12.7099 387.297 12.4806C387.115 11.6979 386.639 11.3593 385.9 11.6153C385.311 11.8179 384.761 11.7966 384.175 11.6953C383.725 11.6166 383.263 11.5846 382.805 11.5819C380.929 11.5699 379.055 11.5766 377.179 11.5766C376.712 11.5766 376.228 11.6499 375.784 11.5513C375.541 11.4966 375.197 11.1606 375.184 10.9353C375.113 9.72859 375.127 8.51526 375.121 7.30593C375.119 6.73126 375.187 6.15259 375.132 5.58459C375.052 4.76726 375.697 4.30059 376.576 4.38193C377.696 4.48459 378.804 4.76726 379.952 4.41526C380.412 4.27526 380.972 4.5006 381.483 4.47926C382.229 4.44593 382.973 4.29126 383.72 4.28326C384.319 4.2766 384.916 4.45526 385.516 4.47393C386.427 4.50193 387.347 4.53259 388.248 4.43526C389.569 4.29259 390.872 4.31526 392.193 4.42859C393.281 4.52193 394.384 4.4566 395.48 4.45926C396.472 4.4606 397.465 4.45659 398.457 4.45659C399.771 4.45659 401.079 4.82993 402.407 4.42459C402.816 4.30059 403.311 4.46593 403.767 4.47926C404.215 4.4926 404.687 4.57259 405.107 4.46459C406.127 4.20326 406.819 4.44993 406.763 5.68593C406.745 6.05659 406.733 6.42993 406.771 6.79659C406.791 6.99259 406.92 7.1766 407 7.36593V10.9259Z"></path>
      <path d="M280.411 10.7982C280.408 10.7408 280.405 10.6822 280.402 10.6248C279.713 10.7195 279.018 10.7795 278.338 10.9155C276.768 11.2275 275.175 11.4715 273.65 11.9328C270.47 12.8955 267.759 14.7115 265.251 16.8462C265.167 16.9182 265.091 17.0022 265.025 17.0902C264.338 17.9888 263.638 18.8755 262.974 19.7902C262.073 21.0342 260.863 22.0862 260.503 23.6768C260.481 23.7795 260.389 23.8635 260.346 23.9648C259.963 24.8622 259.522 25.7408 259.219 26.6648C258.917 27.5942 258.754 28.5688 258.525 29.5222C258.386 30.1008 258.073 30.6928 258.121 31.2542C258.289 33.2288 257.59 35.2302 258.309 37.1835C258.333 37.2488 258.309 37.3302 258.314 37.4048C258.393 38.5382 258.567 39.6462 259.094 40.6755C259.214 40.9115 259.255 41.1888 259.314 41.4515C259.41 41.8755 259.346 42.4448 259.602 42.7022C260.438 43.5408 260.685 44.6848 261.303 45.6288C262.142 46.9102 262.767 48.3355 263.97 49.3648C264.211 49.5715 264.334 49.9102 264.545 50.1595C264.729 50.3768 264.946 50.5715 265.171 50.7488C265.959 51.3688 266.758 51.9755 267.55 52.5915C267.803 52.7888 268.022 53.0462 268.299 53.1955C269.411 53.7902 270.545 54.3475 271.663 54.9315C272.098 55.1595 272.49 55.4942 272.947 55.6488C273.926 55.9808 274.926 56.2568 275.931 56.4982C276.814 56.7088 277.713 56.8582 278.61 56.9968C278.977 57.0528 279.402 56.8968 279.725 57.0262C280.933 57.5088 282.131 57.3515 283.345 57.1235C284.279 56.9488 285.196 56.7408 286.17 56.7488C286.776 56.7555 287.397 56.4662 287.993 56.2568C288.553 56.0608 289.084 55.7902 289.634 55.5635C289.851 55.4742 290.087 55.4288 290.304 55.3395C292.163 54.5742 293.987 53.7048 295.506 52.3888C296.987 51.1048 298.371 49.6928 299.679 48.2302C300.448 47.3715 301.002 46.3155 301.621 45.3275C302.314 44.2168 303.016 43.1088 303.255 41.7808C303.371 41.1395 303.471 40.4715 303.729 39.8808C304.354 38.4502 304.345 36.9315 304.481 35.4302C304.518 35.0248 304.496 34.6142 304.494 34.2075C304.487 33.0715 304.486 31.9368 304.459 30.8008C304.452 30.4768 304.401 30.1435 304.314 29.8302C304.065 28.9248 303.806 28.0208 303.515 27.1288C302.771 24.8382 301.934 22.5928 300.333 20.7248C300.241 20.6168 300.182 20.4728 300.132 20.3368C299.732 19.2155 298.925 18.4648 297.973 17.7888C297.353 17.3488 296.815 16.7662 296.33 16.1742C295.64 15.3315 294.632 14.9715 293.783 14.3755C293.108 13.9022 292.559 13.2128 291.666 13.0675C291.35 13.0168 291.052 12.8488 290.748 12.7302C289.528 12.2528 288.329 11.7195 287.085 11.3195C286.333 11.0755 285.513 11.0395 284.725 10.9062C284.563 10.8795 284.406 10.8035 284.247 10.8035C282.969 10.7942 281.69 10.7982 280.411 10.7982ZM311.583 33.1395C311.71 34.2248 311.802 35.0048 311.889 35.7848C311.898 35.8702 311.887 35.9622 311.867 36.0475C311.67 36.9328 311.467 37.8182 311.267 38.7022C311.262 38.7208 311.254 38.7408 311.258 38.7568C311.683 40.4328 310.736 41.8502 310.292 43.3315C309.844 44.8262 309.07 46.2288 308.39 47.6475C307.94 48.5848 307.442 49.5022 306.899 50.3875C306.302 51.3648 305.671 52.3288 304.975 53.2368C304.51 53.8448 303.915 54.3555 303.362 54.8942C302.495 55.7382 301.574 56.5302 300.754 57.4168C300.15 58.0715 299.396 58.4635 298.668 58.9208C297.513 59.6475 296.427 60.5168 295.206 61.1062C293.69 61.8368 292.147 62.5675 290.461 62.8768C290.285 62.9088 290.099 62.9662 289.95 63.0608C288.835 63.7568 287.549 63.7622 286.317 63.9768C285.347 64.1462 284.37 64.2728 283.395 64.4142C283.287 64.4302 283.174 64.4208 283.063 64.4142C282.625 64.3835 282.133 64.2062 281.758 64.3448C280.833 64.6875 280.006 64.2515 279.135 64.1902C278.55 64.1502 277.953 64.0462 277.377 64.1115C276.306 64.2355 275.337 64.0022 274.358 63.5955C273.747 63.3408 273.057 63.2862 272.415 63.0955C271.842 62.9262 271.286 62.6968 270.725 62.4862C270.235 62.3048 269.762 62.0702 269.262 61.9328C267.861 61.5475 266.713 60.7008 265.502 59.9595C264.963 59.6302 264.346 59.4195 263.839 59.0515C262.762 58.2662 261.629 57.5155 260.709 56.5662C259.133 54.9422 257.543 53.2875 256.254 51.4408C254.883 49.4755 253.775 47.3142 252.993 45.0168C252.782 44.3982 252.486 43.8075 252.287 43.1862C252.111 42.6355 252.018 42.0582 251.883 41.4955C251.841 41.3195 251.817 41.1262 251.725 40.9795C251.015 39.8448 250.977 38.5582 250.89 37.2928C250.81 36.1115 250.747 34.9235 250.785 33.7422C250.833 32.1848 250.947 30.6262 251.102 29.0755C251.307 27.0208 252.118 25.1155 252.677 23.1488C252.806 22.6888 253.131 22.2848 253.366 21.8555C253.47 21.6648 253.623 21.4848 253.665 21.2822C253.942 19.9395 254.807 18.9008 255.466 17.7555C255.613 17.5022 255.726 17.2302 255.885 16.9848C256.11 16.6395 256.351 16.3035 256.606 15.9795C256.861 15.6555 257.157 15.3635 257.406 15.0355C257.789 14.5315 258.078 13.9395 258.526 13.5062C259.903 12.1742 261.315 10.8782 262.759 9.61816C263.201 9.23283 263.81 9.04616 264.297 8.70349C264.811 8.34083 265.266 7.89549 265.755 7.49416C265.866 7.40216 266.002 7.33683 266.134 7.27416C267.083 6.8195 268.042 6.38216 268.983 5.91149C270.05 5.37949 271.117 4.9035 272.337 4.79416C272.859 4.7475 273.346 4.36483 273.873 4.26883C275.127 4.04083 276.398 3.89949 277.661 3.70749C278.27 3.61416 278.904 3.31283 279.476 3.41016C281.208 3.70616 282.947 3.47816 284.673 3.61816C286.489 3.76483 288.29 4.06883 290.025 4.67683C290.538 4.85549 291.075 4.97416 291.61 5.07816C292.858 5.31949 293.704 6.32083 294.848 6.74883C295.168 6.86883 295.515 6.92216 295.825 7.05949C296.235 7.24216 296.642 7.44883 297.017 7.69549C297.853 8.24749 298.67 8.82749 299.488 9.40349C299.728 9.57149 299.95 9.76483 300.178 9.95016C300.59 10.2835 300.966 10.6795 301.419 10.9395C301.938 11.2382 302.29 11.6355 302.566 12.1475C302.683 12.3662 302.91 12.5248 303.083 12.7142C303.513 13.1822 303.94 13.6515 304.367 14.1235C304.403 14.1622 304.411 14.2355 304.453 14.2622C305.558 14.9995 305.943 16.3035 306.8 17.2368C307.044 17.5035 307.258 17.8075 307.439 18.1222C308 19.0995 308.614 20.0568 309.066 21.0835C309.575 22.2435 309.932 23.4702 310.355 24.6675C310.499 25.0782 310.647 25.4875 310.78 25.9022C310.874 26.1942 311.024 26.4968 311.012 26.7888C310.98 27.5555 311.134 28.2768 311.366 28.9968C311.482 29.3568 311.565 29.7422 311.574 30.1182C311.601 31.2235 311.583 32.3302 311.583 33.1395"></path>
      <path d="M223.617 25.9298C223.67 25.9232 223.723 25.9179 223.778 25.9112C223.673 25.0965 223.643 24.2632 223.446 23.4712C223.065 21.9392 222.663 20.3899 221.778 19.0552C221.25 18.2592 220.577 17.5592 219.962 16.8219C219.563 16.3432 219.198 15.8259 218.737 15.4165C218.349 15.0725 217.841 14.8632 217.39 14.5885C216.347 13.9539 215.355 13.2072 214.251 12.7112C213.325 12.2939 212.275 12.1352 211.267 11.9219C210.626 11.7872 209.965 11.7365 209.309 11.6978C208.947 11.6765 208.525 11.8925 208.227 11.7685C207.194 11.3365 206.175 11.6232 205.153 11.6952C204.498 11.7419 204.158 12.1632 204.147 12.8352C204.134 13.7125 204.261 14.6045 203.845 15.4378C203.791 15.5432 203.799 15.6992 203.827 15.8205C204.25 17.7032 203.953 19.6125 204.031 21.5072C204.057 22.1219 204.046 22.7392 204.039 23.3538C204.034 23.8365 204.013 24.3192 203.993 24.8018C203.975 25.2072 203.858 25.6352 203.951 26.0125C204.097 26.5952 204.135 27.1219 203.965 27.7152C203.857 28.0939 203.995 28.5445 204.031 28.9618C204.062 29.3258 204.149 29.6898 204.129 30.0498C204.093 30.7245 203.931 31.3952 203.941 32.0658C203.955 33.0712 204.119 34.0752 204.133 35.0805C204.142 35.9018 203.979 36.7232 203.973 37.5445C203.965 38.7098 203.943 39.8872 204.098 41.0378C204.179 41.6485 204.741 42.1965 205.557 42.1045C205.959 42.0605 206.391 42.0218 206.778 42.1165C208.418 42.5178 210.021 42.2112 211.606 41.8645C212.409 41.6898 213.147 41.2432 213.938 40.9912C215.865 40.3778 217.49 39.2858 218.905 37.8845C219.579 37.2152 220.15 36.4418 220.763 35.7138C221.639 34.6752 222.405 33.5685 222.805 32.2525C223.153 31.1085 223.47 29.9565 223.797 28.8058C223.834 28.6725 223.862 28.5285 223.85 28.3938C223.779 27.5725 223.695 26.7512 223.617 25.9298ZM207.638 49.4805C206.551 49.4018 205.597 49.3338 204.642 49.2632C204.227 49.2338 203.75 49.7325 203.821 50.1512C204.013 51.2938 203.982 52.4312 203.933 53.5898C203.858 55.3298 204.006 57.0792 204.023 58.8245C204.033 59.7632 203.967 60.7018 203.938 61.6405C203.929 61.9178 203.931 62.1965 203.925 62.4738C203.915 62.9232 203.661 63.2592 203.253 63.2898C202.398 63.3538 201.535 63.3085 200.677 63.3245C200.423 63.3298 200.173 63.4138 199.919 63.4192C199.229 63.4325 198.538 63.4458 197.849 63.4178C197.233 63.3938 196.887 63.0272 196.829 62.4152C196.827 62.3965 196.829 62.3778 196.827 62.3592C196.79 61.0685 196.735 59.7778 196.726 58.4872C196.723 58.0552 196.895 57.6232 196.885 57.1925C196.873 56.6538 196.721 56.1192 196.694 55.5805C196.662 54.9085 196.686 54.2325 196.71 53.5605C196.723 53.1778 196.811 52.7978 196.823 52.4152C196.87 50.8658 196.934 49.3152 196.926 47.7645C196.922 46.8512 196.734 45.9378 196.737 45.0245C196.741 44.0018 196.926 42.9792 196.921 41.9565C196.915 40.7658 196.757 39.5752 196.73 38.3845C196.718 37.8072 196.91 37.2285 196.911 36.6498C196.914 35.8258 196.823 35.0018 196.779 34.1765C196.758 33.7938 196.75 33.4099 196.743 33.0259C196.734 32.5192 196.813 31.9965 196.705 31.5125C196.575 30.9245 196.673 30.4005 196.825 29.8499C196.895 29.5979 196.917 29.3112 196.877 29.0539C196.638 27.4805 196.61 25.9192 196.891 24.3432C196.978 23.8525 196.834 23.3245 196.831 22.8139C196.822 20.9605 196.831 19.1058 196.823 17.2525C196.822 17.0005 196.729 16.7472 196.734 16.4965C196.743 15.9992 196.803 15.5045 196.822 15.0085C196.837 14.5805 196.822 14.1512 196.823 13.7232C196.823 13.2192 196.826 12.7152 196.827 12.2112C196.829 11.8752 196.842 11.5379 196.825 11.2019C196.801 10.7272 196.718 10.2525 196.725 9.77918C196.735 8.83918 196.785 7.90052 196.83 6.96318C196.854 6.44985 196.882 5.93518 196.949 5.42718C197.03 4.79918 197.97 4.10852 198.658 4.29518C199.562 4.54052 200.433 4.44185 201.339 4.40318C203.247 4.32185 205.163 4.37518 207.075 4.38318C207.31 4.38452 207.543 4.47252 207.778 4.48052C208.283 4.49785 208.794 4.53385 209.294 4.48185C210.874 4.31385 212.334 4.83385 213.826 5.19518C214.779 5.42585 215.751 5.58585 216.697 5.84185C217.237 5.98852 217.771 6.21252 218.257 6.49118C219.442 7.16852 220.599 7.89785 221.766 8.60852C221.859 8.66585 221.947 8.73519 222.025 8.81119C223.473 10.2165 224.935 11.6072 226.353 13.0418C226.683 13.3765 226.873 13.8552 227.11 14.2752C227.27 14.5579 227.399 14.8592 227.549 15.1472C227.933 15.8872 228.25 16.6739 228.723 17.3499C229.29 18.1605 229.617 19.0339 229.863 19.9712C230.09 20.8299 230.526 21.6472 230.655 22.5138C230.862 23.9045 230.894 25.3205 230.994 26.7272C231.011 26.9752 231.002 27.2245 231.007 27.4738C231.05 29.3232 230.603 31.0792 230.077 32.8378C229.551 34.5925 228.818 36.2445 228.046 37.8978C227.25 39.6045 226.135 41.0458 224.847 42.3832C224.253 43.0005 223.693 43.6538 223.07 44.2418C222.801 44.4965 222.402 44.6098 222.081 44.8165C221.33 45.3005 220.611 45.8365 219.842 46.2858C219.122 46.7058 218.342 47.0205 217.607 47.4165C216.17 48.1925 214.689 48.7898 213.023 48.8632C212.542 48.8845 212.073 49.1258 211.589 49.1725C210.234 49.3045 208.874 49.3872 207.638 49.4805"></path>
      <path d="M114.757 4.32408C115.596 4.41475 116.433 4.54274 117.275 4.57874C117.68 4.59608 118.103 4.47341 118.503 4.36008C119.289 4.13741 119.856 4.52941 119.9 5.32141C119.948 6.18008 120.085 7.03474 120.101 7.89341C120.119 8.75741 120.028 9.62141 119.997 10.4867C119.983 10.8987 119.995 11.3134 119.997 11.7267C120 12.3187 119.992 12.9134 120.008 13.5054C120.037 14.5374 120.096 15.5694 120.113 16.6014C120.132 17.7001 120.147 18.8001 120.109 19.8974C120.071 21.0534 119.957 22.2067 119.905 23.3627C119.889 23.7054 119.992 24.0507 120.003 24.3974C120.019 24.9387 119.995 25.4814 120.001 26.0227C120.009 26.9161 120.032 27.8081 120.041 28.7014C120.047 29.0974 120.036 29.4947 120.029 29.8907C120.023 30.3574 120.015 30.8241 120.004 31.2894C119.972 32.8081 119.92 34.3267 119.911 35.8454C119.905 36.7094 119.979 37.5734 119.995 38.4374C120.005 38.9374 119.976 39.4387 119.957 39.9401C119.947 40.2507 119.844 40.5827 119.92 40.8694C120.217 41.9787 120.16 43.0587 119.935 44.1801C119.789 44.9121 119.796 45.7121 119.92 46.4507C120.156 47.8494 120.148 49.1974 119.685 50.5507C119.223 51.9067 118.871 53.3001 118.373 54.6414C117.868 56.0027 116.812 57.0134 115.915 58.1174C115.729 58.3454 115.476 58.5441 115.371 58.8041C115.075 59.5387 114.532 59.9814 113.837 60.2961C113.661 60.3761 113.477 60.5121 113.376 60.6734C113.048 61.1894 112.588 61.4934 112.043 61.7627C111.212 62.1721 110.453 62.7281 109.624 63.1427C109.169 63.3694 108.629 63.4281 108.131 63.5707C107.331 63.7987 106.547 64.1374 105.732 64.2387C104.741 64.3627 103.727 64.2987 102.723 64.2961C102.376 64.2961 102.031 64.2121 101.685 64.2081C99.4827 64.1841 97.444 63.5667 95.5173 62.5347C95.4533 62.5001 95.3827 62.4654 95.3387 62.4107C94.872 61.8387 94.1533 61.6187 93.608 61.1947C92.6333 60.4387 91.8187 59.4774 90.94 58.6001C90.5667 58.2267 90.196 57.8494 89.832 57.4667C89.6693 57.2947 89.4867 57.1241 89.3827 56.9187C88.5933 55.3654 87.664 53.8681 87.3533 52.1161C87.1613 51.0414 86.96 49.9641 86.844 48.8801C86.7667 48.1414 86.8173 47.3881 86.832 46.6414C86.8587 45.3454 86.9427 44.0494 86.928 42.7534C86.916 41.7307 86.744 40.7081 86.7333 39.6854C86.7253 38.9201 86.8813 38.1561 86.9253 37.3881C86.9467 37.0081 86.876 36.6227 86.8573 36.2401C86.8133 35.3227 86.756 34.4054 86.7413 33.4881C86.72 32.1281 86.7147 30.7681 86.7373 29.4094C86.7533 28.4174 86.8213 27.4254 86.872 26.4334C86.8813 26.2521 86.9373 26.0707 86.9373 25.8894C86.944 24.5881 86.9693 23.2867 86.932 21.9867C86.9027 20.9801 86.7293 19.9747 86.736 18.9707C86.7427 17.7054 86.9213 16.4414 86.9253 15.1761C86.928 14.0214 86.7627 12.8681 86.7307 11.7121C86.7107 10.9414 86.8227 10.1681 86.82 9.39608C86.8173 8.51208 86.7133 7.62808 86.7333 6.74674C86.7453 6.20808 86.8587 5.66008 87.0147 5.14141C87.2133 4.48541 87.776 4.30541 88.728 4.50674C88.8867 4.54141 89.0787 4.63741 89.2053 4.58541C90.4013 4.09208 91.6413 4.58674 92.8573 4.40141C93.5853 4.28941 94.0187 4.96808 93.9827 5.71874C93.9493 6.40008 94.088 7.09075 94.12 7.77741C94.136 8.10141 94.0827 8.42808 94.0547 8.75341C94.016 9.21341 93.9493 9.67075 93.9333 10.1307C93.9133 10.7281 93.916 11.3267 93.9333 11.9241C93.948 12.3814 94.024 12.8374 94.0347 13.2947C94.0813 15.2014 94.12 17.1081 94.144 19.0147C94.1493 19.3974 94.044 19.7801 94.0467 20.1627C94.0507 20.6387 94.1587 21.1161 94.1387 21.5881C94.1147 22.1494 93.9373 22.7081 93.94 23.2667C93.9467 25.1707 93.8867 27.0854 94.0773 28.9734C94.2253 30.4441 93.9453 31.8641 93.9427 33.3067C93.94 34.3707 94.116 35.4334 94.1347 36.4987C94.1507 37.3414 94.0227 38.1854 94.0067 39.0307C93.9813 40.2814 94.0013 41.5347 93.996 42.7867C93.9907 43.8547 93.9787 44.9241 93.9693 45.9921C93.968 46.1921 93.9507 46.3934 93.9573 46.5934C93.984 47.3147 93.9987 48.0361 94.0547 48.7561C94.088 49.1707 94.1587 49.5881 94.268 49.9894C94.7213 51.6507 95.4187 53.1854 96.7133 54.3801C98.5773 56.0987 100.772 57.2067 103.309 57.1814C105.247 57.1627 107.101 56.6507 108.793 55.4521C110.369 54.3374 111.359 52.8654 112.125 51.2214C112.519 50.3774 112.524 49.3481 112.68 48.3974C112.777 47.8041 112.865 47.2041 112.889 46.6041C112.905 46.2121 112.785 45.8161 112.751 45.4201C112.713 44.9987 112.695 44.5747 112.688 44.1521C112.677 43.5907 112.685 43.0294 112.685 42.4694C112.685 41.1707 112.664 39.8721 112.695 38.5747C112.709 37.9934 112.881 37.4161 112.887 36.8347C112.896 36.0094 112.817 35.1814 112.773 34.3547C112.748 33.8601 112.703 33.3654 112.691 32.8707C112.675 32.2907 112.672 31.7107 112.689 31.1321C112.711 30.4334 112.791 29.7361 112.788 29.0374C112.785 28.1734 112.688 27.3081 112.697 26.4441C112.704 25.8841 112.895 25.3241 112.887 24.7667C112.877 24.0041 112.688 23.2414 112.7 22.4814C112.723 21.0094 113.023 19.5187 112.853 18.0774C112.683 16.6161 112.704 15.1707 112.701 13.7201C112.7 12.3614 112.836 11.0041 112.904 9.64541C112.913 9.48141 112.873 9.31608 112.864 9.15208C112.837 8.65208 112.789 8.15341 112.799 7.65474C112.809 7.03074 112.915 6.40675 112.897 5.78541C112.871 4.87741 113.247 4.25208 114.305 4.37608C114.452 4.39341 114.603 4.37875 114.752 4.37875C114.753 4.36008 114.756 4.34275 114.757 4.32408Z"></path>
      <path d="M159.73 63.2882C158.827 63.3335 157.925 63.3989 157.022 63.4175C156.585 63.4255 156.138 63.3802 155.707 63.3002C154.958 63.1615 154.679 62.5162 154.834 61.6122C155.051 60.3469 155.065 59.0735 154.846 57.7962C154.758 57.2869 154.817 56.7535 154.814 56.2309C154.811 55.6135 154.794 54.9962 154.819 54.3815C154.879 52.9855 155.022 51.5909 155.021 50.1949C155.018 48.7816 154.867 47.3696 154.815 45.9562C154.799 45.5176 154.894 45.0749 154.935 44.6349C154.959 44.3856 155.002 44.1349 154.997 43.8856C154.982 43.2002 154.946 42.5162 154.921 41.8322C154.915 41.6842 154.926 41.5362 154.926 41.3882C154.927 39.4416 154.918 37.4949 154.931 35.5482C154.937 34.9056 155.025 34.2642 155.029 33.6216C155.031 33.1096 154.93 32.5962 154.935 32.0842C154.942 31.3122 155.047 30.5402 155.027 29.7696C155.001 28.7616 154.865 27.7576 154.829 26.7509C154.809 26.1656 154.923 25.5776 154.919 24.9922C154.911 24.1269 154.837 23.2629 154.823 22.3976C154.817 21.9976 154.921 21.5962 154.917 21.1962C154.913 20.6429 154.818 20.0882 154.827 19.5362C154.849 18.3202 154.919 17.1056 154.95 15.8896C154.962 15.4042 155.025 14.8842 154.878 14.4416C154.711 13.9389 154.703 13.4882 154.831 12.9989C155.109 11.9402 154.542 11.3789 153.471 11.6109C153.179 11.6736 152.861 11.6176 152.554 11.6202C151.887 11.6229 151.221 11.6216 150.555 11.6336C149.867 11.6456 149.138 11.8256 148.503 11.6536C147.457 11.3709 146.483 11.6362 145.474 11.7056C144.77 11.7522 144.042 11.7522 143.351 11.6256C142.679 11.5029 142.501 10.9509 142.529 10.2562C142.571 9.22822 142.473 8.19355 142.467 7.16155C142.463 6.52155 142.451 5.86822 142.571 5.24555C142.695 4.59222 143.201 4.23622 143.851 4.27622C145.131 4.35489 146.407 4.51756 147.687 4.58156C148.401 4.61622 149.143 4.61889 149.831 4.45755C150.475 4.30689 151.075 4.30556 151.721 4.35889C152.63 4.43489 153.55 4.41089 154.463 4.36956C155.499 4.32289 156.523 4.48156 157.581 4.31489C158.554 4.16156 159.589 4.41089 160.597 4.48022C160.763 4.49089 160.931 4.49089 161.098 4.48956C164.29 4.45222 167.481 4.41755 170.673 4.37355C170.945 4.36955 171.222 4.24822 171.486 4.27756C172.282 4.36422 173.079 4.45889 173.859 4.62956C174.291 4.72289 174.543 5.16822 174.481 5.55622C174.231 7.09489 174.393 8.62956 174.389 10.1669C174.389 10.4722 174.345 10.7909 174.25 11.0816C174.111 11.5122 173.782 11.7069 173.315 11.6909C172.041 11.6442 170.766 11.5962 169.491 11.5842C168.902 11.5776 168.27 11.8029 167.729 11.6576C166.543 11.3376 165.403 11.8416 164.243 11.6896C163.918 11.6456 163.589 11.6242 163.262 11.5829C162.813 11.5269 162.433 11.6256 162.121 11.9869C161.818 12.3376 162.038 12.6469 162.099 12.9989C162.201 13.5896 162.218 14.1976 162.234 14.8002C162.254 15.6389 162.253 16.4789 162.238 17.3176C162.222 18.2576 162.163 19.1962 162.155 20.1349C162.151 20.6656 162.265 21.1989 162.239 21.7256C162.151 23.4669 162.001 25.2042 161.93 26.9442C161.911 27.4202 162.122 27.9016 162.173 28.3856C162.226 28.8762 162.249 29.3776 162.221 29.8696C162.135 31.3456 161.867 32.8042 162.203 34.3002C162.331 34.8669 162.033 35.5162 162.003 36.1309C161.975 36.7056 161.967 37.3029 162.101 37.8536C162.239 38.4282 162.277 38.9469 162.095 39.5149C161.993 39.8389 161.951 40.2375 162.042 40.5575C162.23 41.2255 162.315 41.8642 162.159 42.5549C162.071 42.9442 162.162 43.3695 162.131 43.7749C162.089 44.3375 162.005 44.8989 161.946 45.4602C161.933 45.5855 161.941 45.7136 161.954 45.8389C162.074 47.0456 162.358 48.2215 162.069 49.4722C161.89 50.2535 162.086 51.1202 162.114 51.9496C162.119 52.1149 162.147 52.2829 162.134 52.4469C161.983 54.3336 162.319 56.2149 162.067 58.1175C161.889 59.4535 162.106 60.8415 162.134 62.2069C162.147 62.8922 161.77 63.2802 161.069 63.3095C160.623 63.3282 160.177 63.3135 159.731 63.3135C159.731 63.3055 159.73 63.2962 159.73 63.2882Z"></path>
      <path d="M354.561 46.2545C354.275 47.9772 354.599 49.6425 354.043 51.2225C353.629 52.4039 353.291 53.6265 352.733 54.7359C352.247 55.7012 351.546 56.5745 350.85 57.4145C350.331 58.0412 349.669 58.5492 349.071 59.1105C348.977 59.1999 348.862 59.2799 348.799 59.3879C348.421 60.0479 347.825 60.4025 347.129 60.6452C346.911 60.7212 346.663 60.8292 346.529 60.9999C346.023 61.6399 345.337 61.8719 344.574 61.9825C344.45 61.9999 344.318 62.0372 344.215 62.1039C343.086 62.8559 341.755 62.8559 340.49 63.0839C339.701 63.2265 338.902 63.3745 338.105 63.3972C337.285 63.4199 336.462 63.2945 335.641 63.2305C335.267 63.2012 335.175 62.9399 335.13 62.6239C335.029 61.9225 334.879 61.2239 334.818 60.5185C334.779 60.0679 334.851 59.6052 334.894 59.1492C334.959 58.4412 335.045 57.7345 335.117 57.0265C335.177 56.4265 335.569 56.2705 336.103 56.2199C337.45 56.0932 338.802 55.9839 340.135 55.7625C340.97 55.6239 341.825 55.3972 342.577 55.0239C343.231 54.6985 343.767 54.1265 344.331 53.6359C344.73 53.2905 345.111 52.9185 345.455 52.5199C345.727 52.2052 346.005 51.8585 346.154 51.4785C346.545 50.4812 346.897 49.4665 347.207 48.4425C347.455 47.6239 347.571 46.7999 347.295 45.9292C347.013 45.0359 347.01 44.0332 346.63 43.1959C346.169 42.1825 345.53 41.2145 344.806 40.3665C343.709 39.0825 342.479 37.9092 341.285 36.7119C340.886 36.3119 340.363 36.0279 339.989 35.6092C338.889 34.3812 337.839 33.1052 336.757 31.8612C336.435 31.4905 336.038 31.1852 335.733 30.8052C335.441 30.4412 335.222 30.0185 334.974 29.6212C334.667 29.1305 334.359 28.6412 334.059 28.1479C333.926 27.9305 333.765 27.7159 333.695 27.4772C333.275 26.0505 332.765 24.6359 332.515 23.1785C332.342 22.1639 332.521 21.0865 332.577 20.0385C332.622 19.1799 332.694 18.3199 332.801 17.4679C332.861 16.9865 333.001 16.5145 333.134 16.0465C333.207 15.7865 333.378 15.5519 333.445 15.2905C333.771 14.0319 334.391 12.9305 335.191 11.9185C335.338 11.7332 335.478 11.5292 335.558 11.3105C335.778 10.7065 336.215 10.3105 336.727 9.9652C336.923 9.8332 337.177 9.69986 337.262 9.5052C337.721 8.45986 338.605 7.85853 339.55 7.37987C341.273 6.50653 343.011 5.65187 344.799 4.92653C345.727 4.5492 346.763 4.35587 347.805 4.58387C347.885 4.60253 347.981 4.5332 348.067 4.53587C349.206 4.57053 350.351 4.5572 351.482 4.67186C352.117 4.7372 352.421 5.33453 352.223 5.9652C351.835 7.20786 352.031 8.4572 352.213 9.67853C352.449 11.2705 351.746 11.7265 350.333 11.5599C349.862 11.5052 349.37 11.5932 348.893 11.6559C348.462 11.7119 348.038 11.8932 347.611 11.8959C346.569 11.9025 345.642 12.1905 344.797 12.7945C344.397 13.0799 343.966 13.3225 343.537 13.5612C342.461 14.1599 341.734 15.0705 341.117 16.1105C340.207 17.6425 339.706 19.2932 339.798 21.0585C339.891 22.8332 340.173 24.6679 341.283 26.0719C342.383 27.4625 343.29 29.0692 344.893 30.0452C345.337 30.3159 345.581 30.8945 345.965 31.2839C346.573 31.9012 347.238 32.4625 347.853 33.0745C349.323 34.5412 350.567 36.1919 351.847 37.8225C352.669 38.8692 353.197 40.0145 353.683 41.1959C353.961 41.8719 354.013 42.6412 354.151 43.3719C354.209 43.6759 354.222 43.9865 354.266 44.2932C354.366 44.9785 354.471 45.6639 354.561 46.2545Z"></path>
    </symbol>
</svg>
