<?xml version="1.0" encoding="UTF-8" standalone="no"?>
<!DOCTYPE svg PUBLIC "-//W3C//DTD SVG 1.1//EN" "http://www.w3.org/Graphics/SVG/1.1/DTD/svg11.dtd">
<svg xmlns="http://www.w3.org/2000/svg" xmlns:xlink="http://www.w3.org/1999/xlink" version="1.1" width="272pt" height="368.16pt" viewBox="0 0 272 368.16">
<g enable-background="new">
<g id="Layer-1" data-name="Capa 1">
<clipPath id="cp0">
<path transform="matrix(1,0,0,-1,0,368.16)" d="M 0 368.16 L 272 368.16 L 272 0 L 0 0 Z "/>
</clipPath>
<g clip-path="url(#cp0)">
<path transform="matrix(1,0,0,-1,245.72,182.15201)" d="M 0 0 C -3.192 -7.608 -9.76 -19.872 -14.328 -26.8 L -107.584 -168.096 C -109.424 -170.888 -110.008 -170.888 -111.848 -168.096 L -205.104 -26.8 C -209.672 -19.872 -216.24 -7.6 -219.432 .008 C -219.568 .336 -229.72 24.776 -229.72 46.152 C -229.72 112.32 -175.888 166.152 -109.72 166.152 C -43.552 166.152 10.28 112.32 10.28 46.152 C 10.28 24.744 .104 .24 0 0 M -109.72 182.152 C -184.712 182.152 -245.72 121.144 -245.72 46.152 C -245.72 21.464 -234.648 -5.088 -234.184 -6.208 C -230.608 -14.696 -223.552 -27.88 -218.464 -35.608 L -125.216 -176.896 C -121.4 -182.688 -115.752 -186.008 -109.72 -186.008 C -103.688 -186.008 -98.04 -182.688 -94.224 -176.904 L -.968 -35.608 C 4.128 -27.88 11.176 -14.696 14.752 -6.208 C 15.216 -5.096 26.28 21.456 26.28 46.152 C 26.28 121.144 -34.728 182.152 -109.72 182.152 "/>
<path transform="matrix(1,0,0,-1,136,192.00801)" d="M 0 0 C -30.872 0 -56 25.12 -56 56 C -56 86.88 -30.872 112 0 112 C 30.872 112 56 86.88 56 56 C 56 25.12 30.872 0 0 0 M 0 128 C -39.704 128 -72 95.696 -72 56 C -72 16.304 -39.704 -16 0 -16 C 39.704 -16 72 16.304 72 56 C 72 95.696 39.704 128 0 128 "/>
</g>
</g>
</g>
</svg>
