<?xml version="1.0" standalone="no"?>
<!DOCTYPE svg PUBLIC "-//W3C//DTD SVG 1.1//EN" "http://www.w3.org/Graphics/SVG/1.1/DTD/svg11.dtd" >
<svg xmlns="http://www.w3.org/2000/svg" xmlns:xlink="http://www.w3.org/1999/xlink" version="1.1">
<metadata></metadata>
<defs>
<font id="abc_favoritregular" horiz-adv-x="823" >
<font-face units-per-em="2048" ascent="1597" descent="-451" />
<missing-glyph horiz-adv-x="499" />
<glyph horiz-adv-x="0" />
<glyph horiz-adv-x="682" />
<glyph unicode=" "  horiz-adv-x="499" />
<glyph unicode="&#x09;" horiz-adv-x="499" />
<glyph unicode="&#xa0;" horiz-adv-x="499" />
<glyph unicode="!" horiz-adv-x="532" d="M158 0v225h215v-225h-215zM164 973v461h203v-461l-50 -584h-102z" />
<glyph unicode="&#x22;" horiz-adv-x="737" d="M115 1270v164h194v-164l-61 -277h-82zM432 1270v164h195v-164l-62 -277h-82z" />
<glyph unicode="#" horiz-adv-x="1419" d="M84 358v174h252l78 369h-242v174h281l75 359h185l-76 -359h299l74 359h184l-74 -359h215v-174h-252l-75 -369h241v-174h-278l-74 -358h-184l73 358h-303l-77 -358h-185l78 358h-215zM520 532h303l76 369h-301z" />
<glyph unicode="$" horiz-adv-x="1261" d="M72 461h200q0 -105 51.5 -176.5t143.5 -104.5l78 459l-49 10q-158 34 -255.5 130.5t-97.5 244.5q0 190 140 310t362 120h35l39 225h174l-43 -254q145 -46 228 -155.5t89 -265.5h-200q-4 80 -43.5 141t-104.5 96l-74 -442q205 -46 302.5 -147t97.5 -265 q0 -189 -137.5 -298t-372.5 -109h-27l-39 -226h-174l41 248q-169 43 -263.5 161t-100.5 298zM344 1047q0 -81 47.5 -130t143.5 -71l43 -10l73 444h-16q-132 0 -211.5 -63.5t-79.5 -169.5zM637 154h16q132 0 211.5 61t79.5 164q0 174 -219 221l-12 2z" />
<glyph unicode="%" horiz-adv-x="1910" d="M68 1030q0 188 93 301t253 113t253 -113t93 -301q0 -189 -93 -302.5t-253 -113.5t-253 113.5t-93 302.5zM221 1030q0 -114 50 -199.5t139 -85.5h8q89 0 138.5 85.5t49.5 199.5q0 73 -20 135.5t-63.5 105t-104.5 42.5h-8q-61 0 -105 -42.5t-64 -105.5t-20 -135zM442 0 l861 1434h174l-861 -1434h-174zM1151 406q0 188 93 300.5t253 112.5t253 -112.5t93 -300.5q0 -189 -93 -302.5t-253 -113.5t-253 113.5t-93 302.5zM1305 406q0 -114 49.5 -199.5t138.5 -85.5h8q89 0 139 85.5t50 199.5q0 72 -20 134.5t-64 105t-105 42.5h-8 q-61 0 -104.5 -42.5t-63.5 -104.5t-20 -135z" />
<glyph unicode="&#x26;" horiz-adv-x="1339" d="M109 379q0 131 69.5 216t186.5 128q-246 89 -246 336q0 164 120.5 269.5t286.5 105.5h279v-174h-258q-97 0 -162.5 -59.5t-65.5 -162.5q0 -105 63 -164t165 -59h313v248h201v-248h225v-174h-225v-641h-537q-173 0 -294 107t-121 272zM309 408q0 -107 67.5 -170.5 t182.5 -63.5h301v467h-301q-114 0 -182 -65.5t-68 -167.5z" />
<glyph unicode="'" horiz-adv-x="419" d="M115 1270v164h194v-164l-61 -277h-82z" />
<glyph unicode="(" horiz-adv-x="743" d="M102 717q0 106 8 202.5t27.5 195t49.5 182.5t76.5 159.5t106 131.5t140.5 93.5t178 49.5v-179q-71 -17 -128 -53t-96.5 -83.5t-69 -112.5t-46.5 -130t-27.5 -146.5t-14 -153t-3.5 -156.5t3.5 -156.5t14 -153t27.5 -147t46.5 -130.5t69 -112.5t96.5 -83.5t128 -53v-178 q-98 9 -180 45t-141.5 91.5t-106 131.5t-76 160.5t-48.5 184.5t-26.5 197t-7.5 204z" />
<glyph unicode=")" horiz-adv-x="743" d="M55 -119q71 17 128 53t96.5 83.5t69 112.5t46.5 130.5t27.5 147t14 153t3.5 156.5t-3.5 156.5t-14 153t-27.5 146.5t-46.5 130t-69 112.5t-96.5 83.5t-128 53v179q98 -9 180 -45t141.5 -91.5t106 -131.5t76 -160.5t48.5 -184.5t26.5 -197t7.5 -204q0 -106 -8 -202.5 t-27.5 -195t-49.5 -182.5t-76.5 -159.5t-106 -131.5t-140.5 -93.5t-178 -49.5v178z" />
<glyph unicode="*" horiz-adv-x="882" d="M96 1135v122h238l-119 207l107 62l120 -207l119 207l107 -62l-119 -207h237v-122h-237l119 -207l-107 -62l-119 207l-120 -207l-107 62l119 207h-238z" />
<glyph unicode="+" horiz-adv-x="1183" d="M86 440v174h406v410h200v-410h406v-174h-406v-409h-200v409h-406z" />
<glyph unicode="," horiz-adv-x="524" d="M68 -154h71q123 0 123 123v31h-123v246h246v-287q0 -121 -64.5 -183.5t-181.5 -62.5h-71v133z" />
<glyph unicode="-" d="M135 532v175h553v-175h-553z" />
<glyph unicode="." horiz-adv-x="516" d="M135 0v246h246v-246h-246z" />
<glyph unicode="/" horiz-adv-x="880" d="M61 0l553 1434h205l-553 -1434h-205z" />
<glyph unicode="0" horiz-adv-x="1355" d="M115 717q0 358 147.5 547.5t415.5 189.5t415.5 -189.5t147.5 -547.5t-147.5 -547.5t-415.5 -189.5t-415.5 189.5t-147.5 547.5zM315 717q0 -127 22 -227.5t57.5 -162t83 -102t94.5 -56t96 -15.5h20q49 0 96 15.5t94.5 56t82.5 102t57 162t22 227.5t-22 227.5t-57 162 t-82.5 102t-94.5 56t-96 15.5h-20q-49 0 -96 -15.5t-94.5 -56t-83 -102t-57.5 -162t-22 -227.5z" />
<glyph unicode="1" horiz-adv-x="778" d="M68 829v246l368 359h154v-1434h-197v1145z" />
<glyph unicode="2" horiz-adv-x="1175" d="M102 0v217l463 440q21 20 64 59t67.5 61.5t58 60t51 68t31 72t13.5 83.5q0 99 -69 159t-173 60h-20q-118 0 -192 -77.5t-74 -196.5h-205q1 134 64 237t171.5 157t245.5 54q125 0 226.5 -43.5t164 -132t62.5 -207.5q0 -63 -18 -122.5t-46.5 -108t-71 -99.5t-84.5 -92 t-94 -90q-15 -13 -22 -20l-383 -355h739v-184h-969z" />
<glyph unicode="3" horiz-adv-x="1198" d="M94 375h199q22 -105 98 -163t191 -58h18q117 0 197 65t80 170q0 111 -73 176.5t-188 65.5h-122v172h122q110 0 180 70t70 171q0 108 -75 172t-191 64h-18q-103 0 -180.5 -64.5t-86.5 -160.5h-194q9 172 146 285.5t335 113.5q126 0 233 -51t169.5 -138t62.5 -190 q0 -133 -68.5 -225t-179.5 -127q113 -28 185.5 -116.5t72.5 -227.5q0 -172 -137.5 -285.5t-347.5 -113.5q-209 0 -343.5 106.5t-154.5 288.5z" />
<glyph unicode="4" horiz-adv-x="1251" d="M59 326v196l707 912h195v-934h225v-174h-225v-326h-197v326h-705zM252 500h512v659z" />
<glyph unicode="5" horiz-adv-x="1189" d="M74 379h200q13 -107 95.5 -166t199.5 -59h21q128 0 209.5 84.5t81.5 212.5q0 118 -81 195t-200 77h-20q-73 0 -144 -36.5t-112 -102.5h-199l174 850h768v-185h-618l-101 -465q57 55 132.5 84t154.5 29q197 0 321.5 -124.5t124.5 -311.5q0 -210 -143.5 -345.5 t-357.5 -135.5q-134 0 -243 44t-181 136t-82 219z" />
<glyph unicode="6" horiz-adv-x="1267" d="M111 670q0 169 48.5 316.5t131 249t193.5 160t233 58.5q185 0 305.5 -97.5t151.5 -271.5h-201q-24 89 -86.5 141t-155.5 52h-24q-169 0 -284 -157.5t-134 -413.5q54 109 159.5 172t231.5 63q128 0 233 -57t167.5 -165.5t62.5 -248.5q0 -219 -142 -355t-360 -136 q-242 0 -386 182.5t-144 507.5zM340 463q0 -127 89 -217t206 -90h20q119 0 203 86t84 219q0 135 -84 221t-203 86h-20q-118 0 -206.5 -88.5t-88.5 -216.5z" />
<glyph unicode="7" horiz-adv-x="1103" d="M49 1249v185h993v-195q-276 -167 -408 -456.5t-132 -741.5v-41h-201v59q0 428 140.5 730t392.5 460h-785z" />
<glyph unicode="8" horiz-adv-x="1179" d="M113 1049q0 180 132.5 292.5t344.5 112.5t344.5 -112.5t132.5 -292.5q0 -127 -79 -225.5t-191 -127.5q108 -40 174.5 -129.5t66.5 -208.5q0 -167 -125 -272.5t-323 -105.5t-323.5 105.5t-125.5 272.5q0 119 67 208.5t175 129.5q-112 29 -191 127.5t-79 225.5zM313 1038 q0 -108 75.5 -177.5t191.5 -69.5h20q116 0 191 69.5t75 177.5q0 107 -75 174.5t-191 67.5h-20q-116 0 -191.5 -67.5t-75.5 -174.5zM340 379q0 -100 66.5 -162.5t173.5 -62.5h20q107 0 173.5 62.5t66.5 162.5q0 102 -67 169.5t-173 67.5h-20q-106 0 -173 -67.5t-67 -169.5z " />
<glyph unicode="9" horiz-adv-x="1267" d="M94 348h201q24 -89 86.5 -140.5t155.5 -51.5h24q169 0 284 157.5t134 413.5q-54 -109 -159.5 -172t-231.5 -63q-128 0 -233 57t-167.5 165.5t-62.5 248.5q0 219 142 355t360 136q242 0 386 -182.5t144 -507.5q0 -169 -48.5 -316.5t-131 -249t-193.5 -160t-233 -58.5 q-185 0 -305.5 97t-151.5 271zM326 973q0 -135 83.5 -221t202.5 -86h21q118 0 206.5 88.5t88.5 216.5q0 127 -89 217t-206 90h-21q-118 0 -202 -86t-84 -219z" />
<glyph unicode=":" horiz-adv-x="520" d="M137 0v246h246v-246h-246zM137 778v246h246v-246h-246z" />
<glyph unicode=";" horiz-adv-x="575" d="M102 -154h72q123 0 123 123v31h-123v246h246v-287q0 -121 -64.5 -183.5t-181.5 -62.5h-72v133zM174 778v246h246v-246h-246z" />
<glyph unicode="&#x3c;" horiz-adv-x="1093" d="M86 444v164l870 359v-199l-594 -238l594 -231v-213z" />
<glyph unicode="=" horiz-adv-x="1302" d="M145 256v174h1012v-174h-1012zM145 625v174h1012v-174h-1012z" />
<glyph unicode="&#x3e;" horiz-adv-x="1097" d="M139 84v199l594 237l-594 232v213l871 -359v-164z" />
<glyph unicode="?" horiz-adv-x="970" d="M72 1249v185h436q178 0 285.5 -105.5t107.5 -281.5q0 -113 -55.5 -201t-137.5 -132t-171 -44q-38 0 -55 -17t-17 -55v-188h-195v239q0 106 48 150.5t157 44.5h23q92 0 147 55.5t55 147.5q0 93 -58.5 147.5t-164.5 54.5h-405zM260 0v225h215v-225h-215z" />
<glyph unicode="@" horiz-adv-x="1910" d="M102 635q0 158 48 297t132 241t194.5 175.5t237.5 110t259 36.5q173 0 327.5 -61.5t264 -166t173.5 -248t64 -302.5q0 -238 -115.5 -380t-283.5 -142h-225v133q-33 -66 -103 -110t-164 -44q-160 0 -269.5 120t-109.5 320q0 101 30.5 183.5t82.5 135.5t120.5 82t145.5 29 q93 0 157.5 -42.5t98.5 -110.5v133h174v-676h52q86 0 150.5 95t64.5 274q0 271 -172.5 437.5t-462.5 166.5q-138 0 -261 -49t-215 -136t-146 -217t-54 -284q0 -222 89.5 -385t248.5 -247.5t369 -84.5h501v-174h-512q-190 0 -351 56.5t-282 165.5t-189.5 280.5t-68.5 388.5z M727 614q0 -127 54 -206.5t151 -79.5h10q98 0 161.5 84t63.5 202q0 119 -59 198t-156 79h-10q-99 0 -157 -76.5t-58 -200.5z" />
<glyph unicode="A" horiz-adv-x="1423" d="M14 0l568 1434h262l563 -1434h-213l-143 369h-684l-144 -369h-209zM438 553h541l-270 692z" />
<glyph unicode="B" horiz-adv-x="1357" d="M184 0v1434h625q174 0 292 -103.5t118 -275.5q0 -118 -64 -203t-170 -125q122 -20 193 -110t71 -228q0 -173 -122.5 -281t-297.5 -108h-645zM389 184h399q117 0 186.5 60t69.5 166t-69.5 165.5t-186.5 59.5h-399v-451zM389 819h389q108 0 172 58t64 157t-64 157t-172 58 h-389v-430z" />
<glyph unicode="C" horiz-adv-x="1439" d="M98 717q0 210 80.5 376.5t235.5 263.5t360 97q235 0 397 -128.5t177 -342.5h-205q-15 130 -113.5 208.5t-245.5 78.5h-20q-144 0 -250 -75t-158.5 -198.5t-52.5 -279.5t52.5 -279.5t158.5 -198.5t250 -75h20q147 0 245.5 78.5t113.5 208.5h205q-15 -214 -177 -342.5 t-397 -128.5q-205 0 -360 97t-235.5 263.5t-80.5 376.5z" />
<glyph unicode="D" horiz-adv-x="1464" d="M184 0v1434h512q303 0 484.5 -191.5t181.5 -525.5t-181.5 -525.5t-484.5 -191.5h-512zM389 184h287q232 0 356.5 136.5t124.5 396.5q0 259 -124.5 395.5t-356.5 136.5h-287v-1065z" />
<glyph unicode="E" horiz-adv-x="1335" d="M184 0v1434h1045v-185h-840v-420h717v-184h-717v-461h860v-184h-1065z" />
<glyph unicode="F" horiz-adv-x="1241" d="M184 0v1434h1004v-185h-799v-461h696v-184h-696v-604h-205z" />
<glyph unicode="G" horiz-adv-x="1509" d="M98 717q0 160 49 296t138 233.5t220 152.5t290 55q135 0 243.5 -37.5t179.5 -104t111.5 -155t48.5 -194.5h-204q-15 147 -111 227t-258 80h-21q-218 0 -349.5 -147.5t-131.5 -405.5t131.5 -405.5t349.5 -147.5h21q185 0 292 98.5t107 243.5v39h-409v182h419 q85 0 130 -44.5t45 -129.5v-553h-185v162q-18 -26 -51.5 -54.5t-85.5 -58.5t-129 -49.5t-164 -19.5q-202 0 -356 94.5t-237 261.5t-83 381z" />
<glyph unicode="H" horiz-adv-x="1505" d="M184 0v1434h205v-625h727v625h205v-1434h-205v625h-727v-625h-205z" />
<glyph unicode="I" horiz-adv-x="573" d="M184 0v1434h205v-1434h-205z" />
<glyph unicode="J" horiz-adv-x="835" d="M55 0v195h215q100 0 142.5 42t42.5 142v1055h204v-1076q0 -184 -86.5 -271t-271.5 -87h-246z" />
<glyph unicode="K" horiz-adv-x="1384" d="M184 0v1434h205v-711l707 711h266l-576 -586l586 -848h-256l-477 696l-250 -254v-442h-205z" />
<glyph unicode="L" horiz-adv-x="1263" d="M184 0v1434h205v-1250h840v-184h-1045z" />
<glyph unicode="M" horiz-adv-x="1894" d="M184 0v1434h340l428 -1241l420 1241h338v-1434h-205v1260l-422 -1260h-262l-432 1253v-1253h-205z" />
<glyph unicode="N" horiz-adv-x="1525" d="M184 0v1434h287l666 -1186v1186h204v-1434h-286l-666 1186v-1186h-205z" />
<glyph unicode="O" horiz-adv-x="1552" d="M100 717q0 170 51 309.5t141 232.5t214 144t270 51t270 -51t214 -144t141 -232.5t51 -309.5t-51 -309.5t-141 -232.5t-214 -144t-270 -51t-270 51t-214 144t-141 232.5t-51 309.5zM305 717q0 -256 128.5 -404.5t332.5 -148.5h20q204 0 332.5 148.5t128.5 404.5 t-128.5 404.5t-332.5 148.5h-20q-204 0 -332.5 -148.5t-128.5 -404.5z" />
<glyph unicode="P" horiz-adv-x="1318" d="M184 0v1434h604q204 0 332.5 -116t128.5 -319t-128.5 -318.5t-332.5 -115.5h-399v-565h-205zM389 750h369q139 0 212.5 63.5t73.5 185.5t-73.5 186t-212.5 64h-369v-499z" />
<glyph unicode="Q" horiz-adv-x="1552" d="M100 717q0 170 51 309.5t141 232.5t214 144t270 51t270 -51t214 -144t141 -232.5t51 -309.5q0 -309 -158 -503.5t-417 -227.5v-109q0 -46 17.5 -64t63.5 -18h318v-184h-410q-86 0 -135 45t-49 129v201q-261 31 -421.5 226t-160.5 505zM305 717q0 -256 128.5 -404.5 t332.5 -148.5h20q204 0 332.5 148.5t128.5 404.5t-128.5 404.5t-332.5 148.5h-20q-204 0 -332.5 -148.5t-128.5 -404.5z" />
<glyph unicode="R" horiz-adv-x="1392" d="M184 0v1434h615q198 0 324 -110t126 -280q0 -134 -66 -232t-169 -130q121 0 168 -46t47 -155v-481h-205v430q0 85 -29 114t-114 29h-492v-573h-205zM389 758h379q127 0 201.5 72.5t74.5 183.5q0 114 -72 174.5t-204 60.5h-379v-491z" />
<glyph unicode="S" horiz-adv-x="1282" d="M74 461h205q0 -143 100 -220t266 -77h21q140 0 218.5 61t78.5 154q0 87 -55.5 139.5t-170.5 75.5l-229 47q-363 75 -363 403q0 173 142.5 291.5t369.5 118.5q238 0 380.5 -121.5t150.5 -328.5h-205q-7 121 -95 193.5t-220 72.5h-21q-132 0 -214.5 -63.5t-82.5 -159.5 q0 -160 197 -201l229 -45q391 -77 391 -414q0 -187 -145 -297t-385 -110q-258 0 -407 123.5t-156 357.5z" />
<glyph unicode="T" horiz-adv-x="1298" d="M35 1249v185h1229v-185h-512v-1249h-205v1249h-512z" />
<glyph unicode="U" horiz-adv-x="1429" d="M172 512v922h205v-902q0 -178 84 -273t244 -95h20q160 0 244 95t84 273v902h204v-922q0 -244 -140 -388t-402 -144q-269 0 -406 143t-137 389z" />
<glyph unicode="V" horiz-adv-x="1431" d="M12 1434h217l496 -1248l475 1248h215l-563 -1434h-266z" />
<glyph unicode="W" horiz-adv-x="1916" d="M47 1434h213l281 -1211l293 1211h268l284 -1221l271 1221h213l-348 -1434h-277l-287 1198l-286 -1198h-277z" />
<glyph unicode="X" horiz-adv-x="1300" d="M12 0l520 735l-489 699h240l370 -529l373 529h236l-492 -697l516 -737h-239l-398 567l-401 -567h-236z" />
<glyph unicode="Y" horiz-adv-x="1253" d="M12 1434h238l383 -633l379 633h229l-512 -840v-594h-205v594z" />
<glyph unicode="Z" horiz-adv-x="1259" d="M82 0v182l840 1067h-820v185h1055v-183l-840 -1067h861v-184h-1096z" />
<glyph unicode="[" horiz-adv-x="692" d="M178 -297v2028h451v-175h-256v-1679h256v-174h-451z" />
<glyph unicode="\" horiz-adv-x="880" d="M61 1434h205l553 -1434h-205z" />
<glyph unicode="]" horiz-adv-x="692" d="M63 -123h256v1679h-256v175h451v-2028h-451v174z" />
<glyph unicode="^" horiz-adv-x="1087" d="M78 584l358 850h215l359 -850h-195l-276 688l-277 -688h-184z" />
<glyph unicode="_" horiz-adv-x="1044" d="M61 0h922v-174h-922v174z" />
<glyph unicode="`" horiz-adv-x="440" d="M61 1434h205l113 -277h-133z" />
<glyph unicode="a" horiz-adv-x="1085" d="M92 283q0 67 23.5 121t60 87.5t87 57.5t99.5 35t103 16l283 23v32q0 107 -57 166.5t-156 59.5h-17q-84 0 -143 -40t-68 -114h-194q9 141 124 229t289 88q131 0 227.5 -54.5t142.5 -141t46 -193.5v-430q0 -153 10 -225h-184q-10 51 -10 164q-33 -75 -122.5 -129.5 t-205.5 -54.5q-146 0 -242 86t-96 217zM287 291q0 -63 47 -105.5t119 -42.5h16q98 0 188.5 68.5t90.5 157.5v104l-256 -20q-92 -8 -148.5 -50.5t-56.5 -111.5z" />
<glyph unicode="b" horiz-adv-x="1220" d="M154 0v1434h194v-553q39 71 126 117t192 46q199 0 329.5 -143t130.5 -389q0 -248 -122 -390t-318 -142q-107 0 -203.5 47t-134.5 116v-143h-194zM348 512q0 -174 85.5 -271.5t203.5 -97.5h16q123 0 201 95.5t78 273.5t-78 273.5t-201 95.5h-16q-118 0 -203.5 -97.5 t-85.5 -271.5z" />
<glyph unicode="c" horiz-adv-x="1089" d="M92 512q0 152 56.5 271.5t169.5 190t266 70.5q176 0 290.5 -96.5t129.5 -261.5h-195q-14 87 -72.5 141t-144.5 54h-17q-95 0 -161.5 -52.5t-96.5 -134t-30 -182.5t30 -182.5t96.5 -134t161.5 -52.5h17q86 0 144.5 54t72.5 141h195q-15 -165 -129.5 -261.5t-290.5 -96.5 q-153 0 -266 70.5t-169.5 190t-56.5 271.5z" />
<glyph unicode="d" horiz-adv-x="1220" d="M94 512q0 246 131 389t330 143q105 0 191.5 -46t125.5 -117v553h195v-1434h-195v143q-38 -69 -134 -116t-203 -47q-196 0 -318.5 142t-122.5 390zM289 512q0 -178 77.5 -273.5t200.5 -95.5h17q118 0 203 97.5t85 271.5t-85 271.5t-203 97.5h-17q-123 0 -200.5 -95.5 t-77.5 -273.5z" />
<glyph unicode="e" horiz-adv-x="1101" d="M92 514q0 128 40 231.5t108 167t152 97.5t177 34q198 0 316.5 -124.5t118.5 -325.5v-113h-717q4 -84 31.5 -150.5t69 -106.5t89 -60.5t96.5 -20.5h17q80 0 141.5 41t75.5 119h194q-27 -151 -145 -237t-281 -86q-97 0 -183 34t-153.5 98t-107 168t-39.5 234zM299 635h510 q-6 125 -70.5 185.5t-160.5 60.5h-17q-90 0 -163 -59.5t-99 -186.5z" />
<glyph unicode="f" horiz-adv-x="772" d="M47 856v168h225v195q0 215 215 215h287v-170h-225q-46 0 -64 -18t-18 -64v-158h256v-168h-256v-856h-195v856h-225z" />
<glyph unicode="g" horiz-adv-x="1204" d="M74 -133h194q15 -74 89 -114t182 -40h20q137 0 217 76t80 231v144q-43 -70 -121.5 -117t-185.5 -47q-91 0 -171 32t-144.5 94t-102 164t-37.5 232t36.5 232t100.5 164t144.5 94t173.5 32q109 0 191 -48t116 -115v143h195v-1024q0 -197 -135 -324t-367 -127 q-210 0 -335 88t-140 230zM289 522q0 -181 75 -269.5t193 -88.5h16q112 0 197.5 98.5t85.5 259.5q0 162 -80.5 260.5t-191.5 98.5h-17q-119 0 -198.5 -89.5t-79.5 -269.5z" />
<glyph unicode="h" horiz-adv-x="1187" d="M154 0v1434h194v-553q108 163 328 163q174 0 271 -97t97 -261v-686h-194v645q0 112 -51 174t-156 62h-16q-115 0 -197 -84t-82 -224v-573h-194z" />
<glyph unicode="i" horiz-adv-x="501" d="M143 1208v226h215v-226h-215zM154 0v1024h194v-1024h-194z" />
<glyph unicode="j" horiz-adv-x="518" d="M-168 -205h256q46 0 64 18t18 64v1147h195v-1188q0 -215 -215 -215h-318v174zM160 1208v226h215v-226h-215z" />
<glyph unicode="k" horiz-adv-x="1091" d="M154 0v1434h194v-852l451 442h256l-426 -408l446 -616h-239l-347 483l-141 -137v-346h-194z" />
<glyph unicode="l" horiz-adv-x="501" d="M154 0v1434h194v-1434h-194z" />
<glyph unicode="m" horiz-adv-x="1843" d="M154 0v1024h194v-143q49 74 127 118.5t180 44.5q241 0 338 -190q56 99 145.5 144.5t192.5 45.5q174 0 271.5 -97t97.5 -261v-686h-195v645q0 112 -51 174t-156 62h-16q-101 0 -179.5 -84.5t-78.5 -223.5v-573h-195v645q0 112 -50.5 174t-155.5 62h-17 q-101 0 -179.5 -84.5t-78.5 -223.5v-573h-194z" />
<glyph unicode="n" horiz-adv-x="1187" d="M154 0v1024h194v-143q108 163 328 163q174 0 271 -97t97 -261v-686h-194v645q0 112 -51 174t-156 62h-16q-115 0 -197 -84t-82 -224v-573h-194z" />
<glyph unicode="o" horiz-adv-x="1163" d="M90 512q0 155 65.5 277.5t177.5 188.5t249 66q103 0 193 -39t156 -108t104 -168.5t38 -216.5t-38 -216.5t-104 -168.5t-156 -108t-193 -39q-137 0 -249 66t-177.5 188.5t-65.5 277.5zM285 512q0 -173 80 -271t208 -98h17q128 0 208.5 98t80.5 271t-80.5 271t-208.5 98 h-17q-128 0 -208 -98t-80 -271z" />
<glyph unicode="p" horiz-adv-x="1220" d="M154 -410v1434h194v-143q38 69 134.5 116t203.5 47q196 0 318 -142t122 -390q0 -246 -130.5 -389t-329.5 -143q-105 0 -192 46t-126 117v-553h-194zM348 512q0 -174 85.5 -271.5t203.5 -97.5h16q123 0 201 95.5t78 273.5t-78 273.5t-201 95.5h-16q-118 0 -203.5 -97.5 t-85.5 -271.5z" />
<glyph unicode="q" horiz-adv-x="1220" d="M94 512q0 248 122.5 390t318.5 142q107 0 203 -47t134 -116v143h195v-1434h-195v553q-39 -71 -125.5 -117t-191.5 -46q-199 0 -330 143t-131 389zM289 512q0 -178 77.5 -273.5t200.5 -95.5h17q118 0 203 97.5t85 271.5t-85 271.5t-203 97.5h-17q-123 0 -200.5 -95.5 t-77.5 -273.5z" />
<glyph unicode="r" horiz-adv-x="770" d="M154 0v1024h184v-225q30 112 111.5 173.5t185.5 61.5h92v-188h-82q-138 0 -217.5 -87.5t-79.5 -240.5v-518h-194z" />
<glyph unicode="s" horiz-adv-x="999" d="M76 317h194q7 -88 69 -131t159 -43h16q82 0 136.5 36.5t54.5 96.5q0 105 -140 132l-149 28q-136 27 -217.5 98.5t-81.5 194.5q0 147 112.5 231t274.5 84q195 0 300 -93t105 -244h-194q-8 76 -57.5 125t-143.5 49h-16q-84 0 -135.5 -37.5t-51.5 -93.5q0 -54 34 -85.5 t110 -46.5l161 -32q129 -26 206 -98t77 -201q0 -138 -112 -222.5t-291 -84.5q-199 0 -309.5 93t-110.5 244z" />
<glyph unicode="t" horiz-adv-x="788" d="M35 856v168h225v332h195v-332h245v-168h-245v-600q0 -46 18 -64t64 -18h194v-174h-246q-107 0 -166 59t-59 166v631h-225z" />
<glyph unicode="u" horiz-adv-x="1167" d="M143 348v676h195v-635q0 -246 207 -246h16q104 0 181 90.5t77 237.5v553h195v-1024h-195v195q-32 -92 -116.5 -153.5t-210.5 -61.5q-167 0 -258 101t-91 267z" />
<glyph unicode="v" horiz-adv-x="1058" d="M33 1024h200l297 -834l297 834h199l-379 -1024h-235z" />
<glyph unicode="w" horiz-adv-x="1597" d="M41 1024h205l225 -809l225 809h205l236 -809l215 809h204l-317 -1024h-215l-225 801l-226 -801h-215z" />
<glyph unicode="x" horiz-adv-x="1052" d="M35 0l379 516l-369 508h227l256 -352l258 352h222l-369 -504l379 -520h-227l-267 367l-268 -367h-221z" />
<glyph unicode="y" horiz-adv-x="1097" d="M41 1024h207l319 -756l307 756h201l-420 -1001v-187q0 -215 -215 -215h-338v174h287q46 0 64 18t18 64v143z" />
<glyph unicode="z" horiz-adv-x="1011" d="M86 0v174l590 682h-580v168h809v-174l-590 -682h621v-168h-850z" />
<glyph unicode="{" horiz-adv-x="714" d="M84 573v287h51q61 0 82 28t21 105v420q0 164 60 241t196 77h153v-175h-92q-74 0 -98.5 -32.5t-24.5 -120.5v-492q0 -174 -164 -174v-41q164 0 164 -174v-491q0 -88 24.5 -121t98.5 -33h92v-174h-153q-136 0 -196 76.5t-60 240.5v420q0 77 -21 105t-82 28h-51z" />
<glyph unicode="|" horiz-adv-x="557" d="M176 -174v1782h205v-1782h-205z" />
<glyph unicode="}" horiz-adv-x="712" d="M66 -121h92q74 0 98.5 33t24.5 121v491q0 174 163 174v41q-163 0 -163 174v492q0 88 -24.5 121t-98.5 33h-92v174h153q136 0 196 -77t60 -241v-420q0 -77 21 -105t82 -28h51v-287h-51q-61 0 -82 -28t-21 -105v-419q0 -164 -60 -241t-196 -77h-153v174z" />
<glyph unicode="~" horiz-adv-x="1015" d="M150 727v53q0 91 55 152t143 61q75 0 180 -67l43 -27q63 -39 101 -39q69 0 69 113h144v-53q0 -91 -54.5 -152t-140.5 -61q-31 0 -65 11t-56 23t-59 35l-51 31q-54 33 -97 33q-69 0 -69 -113h-143z" />
<glyph unicode="&#xa2;" horiz-adv-x="1105" d="M94 512q0 150 55 268.5t164.5 189.5t259.5 74l39 226h168l-41 -248q114 -36 184.5 -123t82.5 -213h-201q-15 100 -98 152l-115 -684h4q82 0 138.5 51.5t70.5 132.5h201q-15 -165 -129.5 -261.5t-290.5 -96.5h-23l-39 -226h-168l43 256q-146 55 -225.5 188.5t-79.5 313.5z M295 512q0 -104 34 -188.5t101 -128.5l115 675q-122 -10 -186 -111.5t-64 -246.5z" />
<glyph unicode="&#xa3;" horiz-adv-x="1177" d="M96 0v174h62q136 0 145 143l19 248l-226 -53v184l240 58l18 250q15 212 120 321t314 109h220v-174h-226q-114 0 -166.5 -68t-62.5 -199l-14 -192l264 63v-184l-279 -66l-22 -278q-4 -60 -28.5 -96.5t-74.5 -65.5h711v-174h-1014z" />
<glyph unicode="&#xa5;" horiz-adv-x="1325" d="M59 1434h232l379 -633l372 633h226l-353 -584l197 45v-172l-317 -72l-31 -51v-131l287 63v-172l-287 -63v-297h-201v250l-287 -64v172l287 64v176l-348 -78v172l256 58z" />
<glyph unicode="&#xa8;" horiz-adv-x="716" d="M61 1208v215h205v-215h-205zM451 1208v215h204v-215h-204z" />
<glyph unicode="&#xa9;" horiz-adv-x="1798" d="M100 717q0 162 63.5 310t171 255t255.5 170.5t309 63.5q162 0 310 -63.5t255 -170.5t170.5 -255t63.5 -310q0 -161 -63.5 -309t-170.5 -255.5t-255 -171t-310 -63.5q-161 0 -309 63.5t-255.5 171t-171 255.5t-63.5 309zM254 717q0 -176 87 -326t235.5 -237.5t322.5 -87.5 t322.5 87.5t235.5 237.5t87 326t-87 326t-235.5 237.5t-322.5 87.5t-322.5 -87.5t-235.5 -237.5t-87 -326zM545 729q0 195 98.5 300.5t263.5 105.5q152 0 236 -71.5t92 -203.5h-158q-7 62 -51 96.5t-111 34.5h-16q-95 0 -144.5 -74t-49.5 -188t49.5 -188t144.5 -74h16 q68 0 111.5 34t50.5 97h158q-8 -132 -91.5 -203t-236.5 -71q-165 0 -263.5 105t-98.5 300z" />
<glyph unicode="&#xab;" horiz-adv-x="1110" d="M76 584l297 440h225l-297 -440l297 -441h-225zM506 584l297 440h225l-297 -440l297 -441h-225z" />
<glyph unicode="&#xad;" d="M135 532v175h553v-175h-553z" />
<glyph unicode="&#xae;" horiz-adv-x="1798" d="M100 717q0 162 63.5 310t171 255t255.5 170.5t309 63.5q162 0 310 -63.5t255 -170.5t170.5 -255t63.5 -310q0 -161 -63.5 -309t-170.5 -255.5t-255 -171t-310 -63.5q-161 0 -309 63.5t-255.5 171t-171 255.5t-63.5 309zM254 717q0 -176 87 -326t235.5 -237.5t322.5 -87.5 t322.5 87.5t235.5 237.5t87 326t-87 326t-235.5 237.5t-322.5 87.5t-322.5 -87.5t-235.5 -237.5t-87 -326zM625 344v770h346q119 0 186.5 -59t67.5 -154q0 -79 -45.5 -128.5t-118.5 -65.5q79 0 116 -26.5t37 -92.5v-244h-153v197q0 46 -24 68t-76 22h-183v-287h-153z M778 764h144q149 0 149 110q0 53 -36 75t-115 22h-142v-207z" />
<glyph unicode="&#xb4;" horiz-adv-x="440" d="M61 1157l113 277h205l-184 -277h-134z" />
<glyph unicode="&#xb8;" horiz-adv-x="485" d="M61 -348h127q103 0 103 76q0 37 -25 57t-69 20h-64v226h113v-123q82 -6 130 -55.5t48 -128.5q0 -93 -67.5 -149t-168.5 -56h-127v133z" />
<glyph unicode="&#xbb;" horiz-adv-x="1110" d="M82 143l297 441l-297 440h225l297 -440l-297 -441h-225zM512 143l297 441l-297 440h225l297 -440l-297 -441h-225z" />
<glyph unicode="&#x2c6;" horiz-adv-x="819" d="M61 1157l246 277h205l246 -277h-144l-202 154l-207 -154h-144z" />
<glyph unicode="&#x2da;" horiz-adv-x="514" d="M61 1329q0 82 58.5 137.5t136.5 55.5t137.5 -56t59.5 -137t-59 -136.5t-138 -55.5q-78 0 -136.5 55.5t-58.5 136.5zM168 1329q0 -37 26.5 -63.5t63.5 -26.5t62.5 26.5t25.5 63.5t-25.5 63.5t-62.5 26.5t-63.5 -26.5t-26.5 -63.5z" />
<glyph unicode="&#x2dc;" horiz-adv-x="858" d="M61 1157v53q0 91 55.5 152t143.5 61q75 0 180 -67l43 -27q63 -39 101 -39q69 0 69 113h144v-53q0 -91 -54.5 -152t-140.5 -61q-31 0 -65 11t-56 23t-59 35l-51 31q-54 33 -97 33q-69 0 -69 -113h-144z" />
<glyph unicode="&#x2000;" horiz-adv-x="866" />
<glyph unicode="&#x2001;" horiz-adv-x="1733" />
<glyph unicode="&#x2002;" horiz-adv-x="866" />
<glyph unicode="&#x2003;" horiz-adv-x="1733" />
<glyph unicode="&#x2004;" horiz-adv-x="577" />
<glyph unicode="&#x2005;" horiz-adv-x="433" />
<glyph unicode="&#x2006;" horiz-adv-x="288" />
<glyph unicode="&#x2007;" horiz-adv-x="288" />
<glyph unicode="&#x2008;" horiz-adv-x="216" />
<glyph unicode="&#x2009;" horiz-adv-x="346" />
<glyph unicode="&#x200a;" horiz-adv-x="96" />
<glyph unicode="&#x2010;" d="M135 532v175h553v-175h-553z" />
<glyph unicode="&#x2011;" d="M135 532v175h553v-175h-553z" />
<glyph unicode="&#x2012;" d="M135 532v175h553v-175h-553z" />
<glyph unicode="&#x2013;" horiz-adv-x="1191" d="M135 532v175h922v-175h-922z" />
<glyph unicode="&#x2014;" horiz-adv-x="1847" d="M135 532v175h1577v-175h-1577z" />
<glyph unicode="&#x2018;" horiz-adv-x="546" d="M131 901v287q0 121 64.5 183.5t181.5 62.5h72v-134h-72q-123 0 -123 -122v-31h123v-246h-246z" />
<glyph unicode="&#x2019;" horiz-adv-x="544" d="M113 901v133h71q123 0 123 123v31h-123v246h246v-287q0 -121 -64.5 -183.5t-181.5 -62.5h-71z" />
<glyph unicode="&#x201a;" horiz-adv-x="524" d="M68 -154h71q123 0 123 123v31h-123v246h246v-287q0 -121 -64.5 -183.5t-181.5 -62.5h-71v133z" />
<glyph unicode="&#x201c;" horiz-adv-x="966" d="M131 901v287q0 121 64.5 183.5t181.5 62.5h72v-134h-72q-123 0 -123 -122v-31h123v-246h-246zM551 901v287q0 121 64.5 183.5t181.5 62.5h71v-134h-71q-123 0 -123 -122v-31h123v-246h-246z" />
<glyph unicode="&#x201d;" horiz-adv-x="964" d="M113 901v133h71q123 0 123 123v31h-123v246h246v-287q0 -121 -64.5 -183.5t-181.5 -62.5h-71zM532 901v133h72q123 0 123 123v31h-123v246h246v-287q0 -121 -64.5 -183.5t-181.5 -62.5h-72z" />
<glyph unicode="&#x201e;" horiz-adv-x="944" d="M68 -154h71q123 0 123 123v31h-123v246h246v-287q0 -121 -64.5 -183.5t-181.5 -62.5h-71v133zM487 -154h72q123 0 123 123v31h-123v246h246v-287q0 -121 -64.5 -183.5t-181.5 -62.5h-72v133z" />
<glyph unicode="&#x2022;" horiz-adv-x="1048" d="M145 717q0 154 112.5 266.5t266.5 112.5q160 0 269.5 -112t109.5 -267t-109.5 -267t-269.5 -112q-154 0 -266.5 112.5t-112.5 266.5z" />
<glyph unicode="&#x2026;" horiz-adv-x="1560" d="M135 0v246h246v-246h-246zM657 0v246h246v-246h-246zM1180 0v246h245v-246h-245z" />
<glyph unicode="&#x202f;" horiz-adv-x="346" />
<glyph unicode="&#x2039;" horiz-adv-x="679" d="M76 584l297 440h225l-297 -440l297 -441h-225z" />
<glyph unicode="&#x203a;" horiz-adv-x="679" d="M82 143l297 441l-297 440h225l297 -440l-297 -441h-225z" />
<glyph unicode="&#x205f;" horiz-adv-x="433" />
<glyph unicode="&#x20ac;" horiz-adv-x="1411" d="M96 311v172l180 41q-14 93 -14 174l-166 -36v172l174 38q34 275 179.5 428.5t375.5 153.5q209 0 335 -118.5t145 -331.5h-201q-14 133 -83 204.5t-187 71.5h-21q-128 0 -215 -94.5t-119 -265.5l393 86v-172l-409 -91v-26q0 -56 8 -150l315 70v-172l-276 -62 q43 -121 120.5 -185t182.5 -64h21q118 0 187 71.5t83 204.5h201q-19 -213 -145 -331.5t-335 -118.5q-183 0 -314 98.5t-194 281.5z" />
<glyph unicode="&#x2122;" horiz-adv-x="1964" d="M74 1270v164h706v-164h-266v-615h-174v615h-266zM934 655v779h256l184 -580l174 580h256v-779h-174v553l-174 -553h-164l-184 566v-566h-174z" />
<glyph unicode="&#x25fc;" horiz-adv-x="1024" d="M0 0v1024h1024v-1024h-1024z" />
</font>
</defs>
</svg>
